<svg width="206" height="66" viewBox="0 0 206 66" fill="none" xmlns="http://www.w3.org/2000/svg">
<g clip-path="url(#clip0_649_4215)">
<g clip-path="url(#clip1_649_4215)">
<path d="M55.6077 38.2066C55.5907 38.0947 55.5737 37.9828 55.5481 37.8796C55.1311 36.098 54.5608 34.3508 53.8544 32.6898C53.0969 30.9082 52.1692 29.1783 51.0968 27.5602C51.2074 27.2073 51.301 26.8717 51.3861 26.536C51.8798 24.6339 52.0585 22.7577 51.9138 20.9589C51.7691 19.1429 51.2925 17.3527 50.4925 15.6228C49.003 12.4039 46.3305 9.2797 42.543 6.34483C42.4579 6.26737 42.3642 6.19852 42.2791 6.13827C40.8152 5.01941 39.164 3.91776 37.3766 2.85054C34.6871 1.2497 31.606 0.40625 28.4654 0.40625C24.8651 0.40625 21.401 1.49069 18.4562 3.54767C13.5452 6.96451 9.48531 10.7256 6.40424 14.7277C3.45084 18.5577 1.57837 22.6716 0.846399 26.9491C0.182522 30.8565 0.471904 34.7898 1.72306 38.637C3.81682 45.1091 8.62567 50.9875 14.5835 54.3613C14.6516 54.4043 14.7197 54.4387 14.7878 54.4818C16.4049 55.3769 18.0731 56.074 19.7584 56.556C22.2437 57.2703 24.0991 57.6404 25.5801 57.9416C27.6483 58.3548 28.3888 58.5269 29.0101 59.0175C29.1292 59.1121 29.1973 59.2412 29.1973 59.3101C29.1973 59.3531 29.1122 59.5167 28.8484 59.7318C28.1079 60.3257 27.6398 61.2122 27.5632 62.1503C27.427 63.8974 28.6016 65.4639 30.3038 65.7995C30.7719 65.8942 31.2996 65.9372 31.8614 65.9372C34.1679 65.9372 37.3852 65.1626 40.4577 63.8544C45.0623 61.9093 49.0881 58.9486 51.7862 55.5318C54.1268 52.5625 55.5396 49.2489 55.9907 45.66C56.3056 43.2759 56.1695 40.7714 55.6077 38.2066Z" fill="white"/>
<path d="M21.246 30.9853C21.3311 30.9853 21.4162 30.9681 21.4928 30.9337C21.6375 30.8648 21.7481 30.7443 21.7992 30.598C22.2673 29.3242 22.9993 28.1882 23.91 27.3103C24.3866 26.8541 24.9058 26.4754 25.4505 26.2C25.7229 26.0537 26.0123 25.9246 26.3016 25.8299C26.6165 25.7267 26.9059 25.6578 27.1783 25.6148C27.7996 25.5287 28.3869 25.5545 28.9316 25.7008C29.5104 25.8472 30.0296 26.1054 30.4892 26.4582C30.7105 26.6304 30.9317 26.8369 31.136 27.0607C31.3318 27.2759 31.5105 27.5168 31.6722 27.775C31.7148 27.8439 31.7573 27.9127 31.7999 27.9902L31.8084 28.0074C31.8424 28.0849 31.8935 28.1796 31.9276 28.2312C32.1063 28.4808 32.3957 28.6271 32.7021 28.6271C33.2298 28.6271 33.6553 28.2054 33.6553 27.689C33.6553 27.5857 33.6383 27.4824 33.6043 27.3877L33.6128 27.3791L33.5532 27.2672C33.5447 27.25 33.5362 27.2328 33.5277 27.2156C33.434 27.0349 33.3404 26.88 33.2468 26.7422C32.7872 26.0193 32.2255 25.4168 31.5701 24.9521C30.8807 24.4529 30.0976 24.1086 29.3146 23.9537C28.5486 23.7902 27.706 23.7816 26.8804 23.9451C26.5059 24.0139 26.1314 24.1258 25.7314 24.2807C25.3654 24.4185 25.0079 24.5992 24.6675 24.8058C24.0206 25.193 23.4163 25.6836 22.8631 26.2775C21.8503 27.3619 21.0928 28.7304 20.6672 30.2365C20.5821 30.5378 20.7438 30.8562 21.0332 30.9595C21.1098 30.9681 21.1779 30.9853 21.246 30.9853Z" fill="#121821"/>
<path d="M27.2828 10.4327C27.6403 10.536 28.0658 10.579 28.602 10.5704C28.7297 11.0438 28.8489 11.5516 28.968 12.068C28.5935 12.0249 28.2276 11.9561 27.8956 11.8786C27.7339 11.8356 27.5637 11.87 27.419 11.9561C27.2743 12.0421 27.1722 12.1884 27.1296 12.352C27.087 12.5155 27.1211 12.6876 27.2062 12.8339C27.2913 12.9803 27.436 13.0835 27.5977 13.1266C27.9637 13.2126 28.5425 13.3331 29.2574 13.3934C29.3255 13.7118 29.3936 14.0389 29.4532 14.3831C29.4532 14.3917 29.4532 14.4004 29.4617 14.409C29.4957 14.5639 29.5979 14.693 29.7255 14.779C29.8192 14.8393 29.9213 14.8651 30.0319 14.8651C30.083 14.8651 30.1256 14.8565 30.1766 14.8479C30.4915 14.7704 30.6873 14.4434 30.6107 14.1249C30.5511 13.8926 30.4915 13.6602 30.432 13.4278C30.7299 13.4192 31.0192 13.3848 31.2916 13.3417C31.3342 13.5397 31.3767 13.729 31.4108 13.927C31.4108 13.9356 31.4193 13.9442 31.4193 13.9528C31.4618 14.1077 31.5554 14.2368 31.6916 14.3143C31.8278 14.3917 31.9895 14.4176 32.1427 14.3745C32.2959 14.3315 32.4236 14.2368 32.5002 14.0991C32.5768 13.9614 32.6023 13.7979 32.5598 13.643C32.5002 13.4278 32.4491 13.2126 32.3895 12.9975C32.9938 12.7135 33.4024 12.2917 33.6237 11.7409C33.9045 11.0266 33.6833 10.2175 33.079 9.73555C32.6194 9.36547 32.0321 9.18473 31.232 9.1503C31.0788 8.71136 30.9256 8.27243 30.7639 7.85931C30.8916 7.87652 31.0192 7.89373 31.1384 7.91095C31.4788 7.97119 31.8108 7.73881 31.8704 7.38594C31.9299 7.04168 31.7001 6.70602 31.3512 6.64577C30.9852 6.58552 30.6107 6.54249 30.2277 6.52528C30.117 6.26708 30.0234 6.05191 29.9383 5.86257C29.8532 5.67322 29.6319 5.57855 29.4361 5.65601C29.2319 5.74207 29.1383 5.97445 29.2149 6.1724C29.2659 6.2929 29.3085 6.41339 29.3595 6.53388C28.968 6.5597 28.5935 6.61995 28.2446 6.69741C28.1595 6.50806 28.0914 6.33593 28.0148 6.18101C27.9297 5.99166 27.7084 5.89699 27.5126 5.97445C27.3083 6.05191 27.2147 6.28429 27.2913 6.49085C27.3509 6.63716 27.4105 6.79208 27.47 6.947C27.0275 7.13635 26.67 7.37733 26.3976 7.66996C26.0061 8.09169 25.8614 8.6339 26.0061 9.15891C26.1678 9.76137 26.6615 10.2606 27.2828 10.4327ZM32.0406 11.7323C31.9214 11.3106 31.7938 10.8975 31.6661 10.4929C32.8662 10.5188 32.6023 11.6376 32.0406 11.7323ZM31.0107 12.0766C30.7384 12.1196 30.4234 12.1368 30.1 12.1368C29.9468 11.586 29.7851 11.0352 29.6234 10.5102L29.7255 10.5015C29.9979 10.4757 30.3043 10.4499 30.6022 10.4413C30.7384 10.9577 30.8745 11.5085 31.0107 12.0766ZM29.8106 7.80767C29.9638 8.24661 30.1085 8.71136 30.2447 9.17612C30.0404 9.19334 29.8447 9.21055 29.6149 9.22776C29.4787 9.23637 29.3425 9.25358 29.2063 9.26219C29.0531 8.80604 28.8914 8.35849 28.7212 7.91955C29.0617 7.8507 29.4276 7.81627 29.8106 7.80767ZM27.8956 8.17775C28.0148 8.54784 28.1339 8.92653 28.2446 9.29662C27.4445 9.43432 26.8913 8.44456 27.8956 8.17775Z" fill="#121821"/>
<path d="M29.2252 27.7481C28.1358 27.2747 27.1399 27.2231 26.2803 27.5932C25.3015 28.0235 24.51 29.0047 23.9993 30.442C23.795 31.0186 24.0929 31.2338 24.1865 31.2854C24.2631 31.3285 24.3568 31.3457 24.4419 31.3457C24.6376 31.3457 24.8419 31.251 24.9611 31.0875C25.9314 29.7621 26.808 29.719 27.8208 29.6588C28.34 29.633 28.8847 29.5985 29.472 29.392C29.7869 29.2801 29.9912 29.0219 29.9997 28.712C30.0082 28.3247 29.7188 27.9633 29.2252 27.7481Z" fill="#121821"/>
<path d="M41.8384 25.8902C41.0894 26.0021 40.4936 26.4927 40.1617 27.2759C40.068 27.4911 40.0936 27.7407 40.2297 27.9042C40.3404 28.0419 40.5021 28.1021 40.6723 28.0677C40.9532 28.0161 41.2171 27.93 41.4724 27.8525C42.2554 27.6029 42.9959 27.3706 44.1194 28.0849C44.2896 28.1968 44.4428 28.2484 44.5705 28.2484C44.6045 28.2484 44.6471 28.2398 44.6812 28.2312C44.7663 28.2054 44.8344 28.1452 44.8769 28.0591C44.9535 27.8956 44.9705 27.6202 44.6131 27.1898C43.8385 26.2603 42.7746 25.7611 41.8384 25.8902Z" fill="#121821"/>
<path d="M34.606 23.6783C35.0145 23.3255 35.1507 22.7144 34.8528 22.0431C34.5549 21.3718 34.0357 20.9156 33.4399 21.2685C32.9803 21.5525 32.8101 22.2582 33.108 22.9296C33.4144 23.6009 34.1889 24.0398 34.606 23.6783Z" fill="#121821"/>
<path d="M53.1401 38.6366C53.1401 38.628 53.1401 38.628 53.1401 38.6194C53.1401 38.5678 53.1316 38.5247 53.1231 38.4731C52.7401 36.8378 52.2124 35.2284 51.5656 33.705C50.7144 31.6997 49.6335 29.789 48.3568 28.016C48.3398 27.9902 48.3313 27.9558 48.3398 27.9214C48.5611 27.2759 48.7824 26.6217 48.9696 25.873C49.8122 22.6197 49.5739 19.6245 48.2377 16.7069C46.9184 13.8409 44.4842 11.0265 40.9861 8.33264C40.9435 8.29821 40.901 8.26378 40.8584 8.23796C39.4541 7.17935 37.871 6.11212 36.1347 5.07933C31.1216 2.09282 24.7722 2.3252 19.9633 5.67318C15.2651 8.94371 11.401 12.5241 8.47315 16.311C5.77508 19.8053 4.08134 23.532 3.41747 27.3791C2.82168 30.8648 3.08553 34.3849 4.2005 37.8276C6.10702 43.7145 10.4988 49.0679 15.9375 52.1318C15.9715 52.1491 16.0056 52.1749 16.0311 52.1835C17.4951 53.0011 19.0015 53.6294 20.5166 54.0683C22.9082 54.7483 24.7041 55.1183 26.1425 55.4024C28.3128 55.8413 29.5129 56.0823 30.6449 56.9774C31.3769 57.554 31.811 58.4233 31.811 59.3012C31.811 60.2135 31.3599 61.0655 30.4917 61.7541C30.3045 61.909 30.1853 62.1241 30.1683 62.3565C30.1343 62.7955 30.4236 63.1828 30.8492 63.2688C31.1556 63.3291 31.5216 63.3635 31.9216 63.3635C33.8792 63.3635 36.7986 62.6405 39.5307 61.4873C43.7522 59.7057 47.4121 57.0204 49.8463 53.9392C51.889 51.3486 53.1231 48.4568 53.5146 45.3498C53.7955 43.2067 53.6678 40.9518 53.1401 38.6366ZM48.8249 34.23C48.7228 34.6604 48.476 35.0046 48.0759 35.2972C47.9823 35.3661 47.8802 35.4263 47.7695 35.4866C47.6419 35.5554 47.4972 35.6071 47.3355 35.6501C46.2035 35.9255 44.4927 35.3747 42.9947 34.2386C42.9777 34.2214 42.9607 34.2128 42.9352 34.1956C42.1011 33.5587 41.3606 32.7841 40.7307 31.8804C39.6413 30.3312 38.9434 28.6443 38.7732 27.1381C38.6285 25.8385 38.9093 24.823 39.5562 24.3582C39.8456 24.1516 40.2116 24.0484 40.6201 24.0484C41.6244 24.0484 42.9181 24.6336 44.1693 25.7094C44.1693 25.7094 44.1778 25.7094 44.1778 25.7181C44.9098 26.4496 45.6077 27.2328 46.246 28.0332C46.246 28.0332 46.246 28.0332 46.246 28.0418C47.0035 29.1177 49.2675 32.3538 48.8249 34.23ZM46.6035 40.6936C46.3992 40.9346 46.1439 41.1412 45.8375 41.253C45.5311 41.3735 45.1906 41.3649 44.8757 41.2875C44.5608 41.21 44.2629 41.0637 43.9906 40.9088C43.7182 40.7453 43.4543 40.5645 43.199 40.3924C42.9437 40.2116 42.6883 40.0481 42.433 39.9018C42.1777 39.7469 41.9393 39.592 41.701 39.4456C41.4627 39.2993 41.2329 39.1702 40.9776 39.0756C40.7222 38.9809 40.4499 38.9206 40.135 38.8948L40.1094 38.8174C40.3648 38.6022 40.6967 38.4989 41.0286 38.4817C41.3691 38.4731 41.701 38.5506 42.0074 38.6797C42.3138 38.8088 42.5862 38.9981 42.833 39.2047C43.0799 39.4198 43.3011 39.6436 43.5395 39.8416C43.7693 40.0481 43.9991 40.2461 44.2374 40.4268C44.4672 40.6075 44.714 40.7711 44.9693 40.883C45.2247 40.9948 45.497 41.0465 45.7694 40.9948C46.0418 40.9518 46.3056 40.8141 46.5439 40.6248L46.6035 40.6936ZM41.0116 10.5273C43.7267 12.7823 45.6417 15.1061 46.7141 17.4385C47.1312 18.3508 47.4376 19.2889 47.6078 20.227C47.6249 20.3389 47.4802 20.3991 47.4206 20.2959C47.3525 20.184 47.2844 20.0721 47.2163 19.9516C46.961 19.5213 46.6631 19.0909 46.3226 18.6348C46.0247 18.2303 45.6843 17.8258 45.3268 17.4126C44.68 16.6811 43.965 15.9667 43.1224 15.2266C43.0033 15.1233 42.85 15.0802 42.6968 15.1061C42.5436 15.1319 42.4075 15.2352 42.3223 15.3729C42.2202 15.5622 42.2458 15.7946 42.3904 15.9581C43.182 16.879 43.7607 17.5934 44.2629 18.2819C44.5608 18.6864 44.8332 19.0995 45.0885 19.4955C45.3438 19.9 45.5822 20.3217 45.812 20.752C46.0333 21.1737 46.229 21.6127 46.3992 22.0602C46.5695 22.5078 46.7141 22.9553 46.8163 23.4029C47.0291 24.341 47.1142 25.2705 47.1738 26.0537C47.1738 26.0623 47.1738 26.0795 47.1738 26.0881C47.1652 26.114 47.1567 26.1398 47.1482 26.157C47.1227 26.2345 47.0291 26.2517 46.978 26.1914C46.4673 25.5545 45.9056 24.9779 45.3268 24.4701C43.8033 22.9467 42.1011 21.5869 40.2711 20.425C38.2284 19.1254 36.024 18.084 33.7175 17.3094C33.6324 17.2835 33.6239 17.1717 33.7005 17.1286C36.5177 15.4848 39.7264 13.2901 40.8499 10.5532C40.8754 10.5015 40.952 10.4843 41.0116 10.5273ZM11.4606 46.4256C10.0988 44.6871 8.09865 41.2186 8.08163 37.0272C8.06461 35.6587 8.18376 34.2817 8.4391 32.9304C8.68593 31.605 9.08595 30.271 9.63067 28.9455C10.1413 27.6976 10.7882 26.441 11.5542 25.1844C12.2777 23.9967 13.1033 22.8262 13.9969 21.6901C15.7247 19.5213 17.7334 17.4471 19.9718 15.5192C20.0995 15.4073 20.1761 15.2524 20.1761 15.0802C20.1761 14.9081 20.108 14.7446 19.9718 14.6327C19.8697 14.538 19.7335 14.495 19.5973 14.495C19.4697 14.495 19.342 14.538 19.2314 14.6155C18.0994 15.4589 16.9503 16.4057 15.8354 17.4299C14.763 18.4024 13.7161 19.4696 12.7203 20.6057C11.6734 21.802 10.7712 22.9639 9.97112 24.1516C9.10298 25.4599 8.35399 26.7853 7.74969 28.1107C7.09432 29.548 6.59216 31.0111 6.26022 32.4657C5.90275 34.0321 5.75806 35.5985 5.84317 37.1046C5.85168 37.2423 5.83466 37.3198 5.81764 37.3714C5.80913 37.3542 5.80062 37.337 5.7921 37.3026C4.26008 32.5603 3.69834 25.2447 9.78388 17.3524C12.6011 13.6946 16.346 10.2347 20.8996 7.06746C23.1465 5.50966 25.7765 4.68342 28.5171 4.68342C30.9003 4.68342 33.2409 5.32031 35.275 6.53385C36.4921 7.25681 37.6412 8.00559 38.6966 8.75436C39.2072 9.11584 39.3775 9.81298 39.0881 10.3552C37.5475 13.2901 32.7983 15.7774 28.2022 18.1872L28.1852 18.1958C27.5213 18.5487 26.8234 18.9102 26.1595 19.2631C21.2145 21.9053 17.3419 25.0467 14.6608 28.5841C12.2521 31.7599 10.8563 35.1423 10.5244 38.6538C10.269 41.3219 10.652 43.9383 11.6308 46.3137C11.6734 46.4342 11.5287 46.5203 11.4606 46.4256ZM36.5177 55.0925C36.4581 55.1442 36.3645 55.0839 36.3815 55.0065C36.7815 52.6827 38.3731 50.488 38.9093 49.7994C38.9604 49.7306 39.0711 49.7736 39.0625 49.8597C38.9604 50.7548 38.5008 53.5347 36.5177 55.0925ZM38.4923 57.029C38.3987 57.0721 38.3221 56.9516 38.3987 56.8827C41.0797 54.6192 41.1138 51.0904 41.0457 49.9199C41.0372 49.8253 41.1648 49.7908 41.2074 49.8769C41.7861 51.0216 43.2075 54.7224 38.4923 57.029ZM43.965 53.9392C43.9054 54.0167 43.7863 53.9392 43.8203 53.8532C44.4672 52.2781 43.6416 50.4535 43.2331 49.7134C43.1905 49.6273 43.2841 49.5498 43.3607 49.6015C44.1012 50.1781 45.7013 51.8134 43.965 53.9392ZM51.9486 41.8383C51.4804 44.2137 50.0506 46.09 48.2291 46.7527C45.9311 47.5875 43.3692 46.3826 41.2074 43.4477C41.0201 43.1981 40.7307 43.0604 40.4158 43.069C40.1009 43.0863 39.82 43.2498 39.6583 43.5252C37.0369 47.8629 32.9855 50.2212 28.5256 49.9888C23.487 49.722 18.8739 46.1674 16.1928 40.4698C16.0226 40.0998 15.6481 39.8846 15.2396 39.9362C14.8396 39.9793 14.5246 40.2633 14.431 40.6592C13.7161 43.7834 14.2693 46.9076 15.9886 49.4724C16.0737 49.6015 16.1673 49.7306 16.2609 49.8597C16.3375 49.9544 16.2014 50.0748 16.1162 49.9888C15.4864 49.3949 14.7289 48.5257 13.9799 47.2863C12.5415 44.9195 11.9032 41.9071 12.2011 38.826C12.8649 31.9234 18.0994 25.5115 26.951 20.7778C27.6064 20.425 28.2873 20.0721 28.9512 19.7192L28.9852 19.702C29.4959 19.4352 30.33 18.9963 30.8832 18.695C31.113 18.5745 31.3599 18.5143 31.6152 18.5143C31.7599 18.5143 31.9046 18.5315 32.0493 18.5745C34.6367 19.3233 37.105 20.4336 39.3775 21.8709C39.5562 21.9828 39.7434 22.1033 39.9392 22.241C40.0158 22.2926 39.9903 22.4045 39.9052 22.4217C39.42 22.5164 38.9859 22.7057 38.5944 22.9811C37.4199 23.8246 36.9007 25.3652 37.1135 27.3361C37.3092 29.1177 38.1093 31.08 39.3689 32.8702C39.5562 33.137 39.7605 33.4038 39.9732 33.662C40.0158 33.7136 39.9988 33.7911 39.9392 33.8169C39.8711 33.8427 39.7945 33.8771 39.7264 33.9116C39.3775 34.0837 39.0625 34.3161 38.7987 34.6087C38.7646 34.6431 38.7136 34.6517 38.671 34.6259C38.4327 34.4538 38.1689 34.3075 37.8965 34.187C37.2411 33.8944 36.5347 33.7394 35.7942 33.7394C34.1601 33.7394 32.6791 34.4882 31.8195 35.7276L31.7939 35.762C31.7344 35.8567 31.6748 35.9514 31.6152 36.0546C31.6152 36.0546 31.6152 36.0546 31.6152 36.0632C30.0406 38.5333 27.4958 39.7038 25.2743 38.9723C24.0913 38.585 23.1125 37.6813 22.4997 36.4161C22.4912 36.3903 22.4741 36.3645 22.4571 36.3473C22.4571 36.3386 22.4486 36.3386 22.4401 36.3214C22.4316 36.3042 22.4231 36.2956 22.4146 36.2784C22.406 36.2698 22.406 36.2612 22.389 36.2526C22.3805 36.244 22.372 36.2268 22.3635 36.2182C22.355 36.2095 22.3465 36.2009 22.338 36.1923C22.3294 36.1837 22.3209 36.1751 22.3039 36.1665C22.2954 36.1579 22.2869 36.1493 22.2784 36.1407C22.2699 36.1321 22.2528 36.1235 22.2443 36.1149C22.2358 36.1063 22.2273 36.0977 22.2188 36.0977C22.2103 36.0891 22.1933 36.0804 22.1762 36.0718C22.1677 36.0632 22.1592 36.0632 22.1592 36.0632C22.1422 36.0546 22.1337 36.046 22.1082 36.0374L22.0911 36.0288C22.0741 36.0202 22.0486 36.0116 22.0316 36.003H22.023C21.972 35.9858 21.9209 35.9772 21.8698 35.9686H21.8528C21.8358 35.9686 21.8188 35.9686 21.7932 35.96C21.7847 35.96 21.7762 35.96 21.7677 35.96C21.7507 35.96 21.7337 35.96 21.7166 35.96C21.7081 35.96 21.6996 35.96 21.6826 35.96C21.6656 35.96 21.6571 35.96 21.64 35.9686C21.6315 35.9686 21.6145 35.9686 21.606 35.9772C21.589 35.9772 21.5805 35.9858 21.5634 35.9858C21.5464 35.9858 21.5379 35.9944 21.5209 35.9944H21.5039C21.4953 35.9944 21.4953 35.9944 21.4783 36.003C21.4698 36.003 21.4528 36.0116 21.4443 36.0116C21.4273 36.0202 21.4102 36.0288 21.3932 36.0374C21.3847 36.0374 21.3847 36.0374 21.3762 36.046C21.3592 36.0546 21.3336 36.0632 21.3166 36.0804L21.3081 36.0891C21.2826 36.1063 21.2655 36.1149 21.24 36.1321C21.2315 36.1407 21.2315 36.1407 21.223 36.1493L21.2145 36.1579C21.206 36.1665 21.1889 36.1751 21.1804 36.1837C21.1719 36.1923 21.1634 36.2009 21.1549 36.2095C21.1464 36.2182 21.1379 36.2268 21.1294 36.2354C21.1208 36.244 21.1123 36.2526 21.1038 36.2612C21.0953 36.2698 21.0868 36.2784 21.0783 36.2956C21.0698 36.3042 21.0613 36.3128 21.0528 36.33C21.0442 36.3386 21.0357 36.3559 21.0272 36.3645C21.0187 36.3731 21.0187 36.3817 21.0102 36.3989C21.0017 36.4161 20.9932 36.4247 20.9847 36.4505L20.9762 36.4677C20.9676 36.485 20.9591 36.5022 20.9506 36.5194C20.9506 36.528 20.9421 36.528 20.9421 36.5366C20.9336 36.5538 20.9336 36.5796 20.9251 36.5968V36.6055C20.9166 36.6571 20.9081 36.7087 20.8996 36.7604C20.8996 36.769 20.8996 36.7776 20.8996 36.7862V36.8034C20.8996 36.812 20.8996 36.8292 20.8996 36.8464C20.8996 36.855 20.8996 36.8723 20.8996 36.8809H20.9932L20.8996 36.8981C20.8996 36.9067 20.8996 36.9153 20.8996 36.9325L20.9932 36.9153L20.8996 36.9411C21.5634 41.933 25.8531 45.7027 30.8832 45.7027C32.7727 45.7027 34.6197 45.1691 36.2283 44.1621C37.7433 43.2154 38.9774 41.8813 39.803 40.2977C39.8371 40.2375 39.9137 40.2289 39.9647 40.2719C42.2798 42.6559 45.0034 43.6027 47.3014 42.8022C49.1058 42.174 50.4506 40.5989 51.14 38.3182C51.1655 38.2235 51.3017 38.2235 51.3358 38.3182C51.6507 39.5231 51.8634 40.7022 51.9486 41.8469C51.9486 41.8211 51.9486 41.8297 51.9486 41.8383ZM35.4708 41.3477C35.7091 41.1498 35.9134 40.9002 36.1091 40.6334C36.2538 40.444 36.7645 39.8329 36.7475 39.8071C36.9092 39.592 37.173 39.2993 37.522 39.1358C37.9476 38.9895 38.3987 38.9292 38.8498 39.2477L38.7647 39.2907C38.7561 39.3079 38.7391 39.3252 38.7221 39.3252C38.688 39.3338 38.654 39.351 38.6285 39.3596L38.5689 39.394L38.5348 39.4026C38.4668 39.437 38.3987 39.4629 38.3306 39.5145L38.2795 39.5403C38.2625 39.5489 38.2455 39.5661 38.237 39.5747L38.1518 39.635C38.1518 39.635 38.1433 39.635 38.1433 39.6436C38.0923 39.6952 38.0327 39.7383 37.9901 39.7899C37.7859 39.9965 37.6071 40.2547 37.4114 40.5301C37.2156 40.7969 36.9943 41.0723 36.7305 41.3219C36.4666 41.5715 36.1772 41.7953 35.8708 42.0018C35.5644 42.1998 35.224 42.3547 34.8835 42.4494C34.5346 42.5354 34.1856 42.5785 33.8366 42.5612C33.1472 42.5268 32.4919 42.3375 31.8791 42.0621L31.9046 41.9674C32.5514 42.0879 33.1983 42.1567 33.8196 42.0707C34.126 42.0362 34.4239 41.9502 34.7048 41.8297C34.9771 41.7092 35.2325 41.5457 35.4708 41.3477Z" fill="#121821"/>
<path d="M29.6283 9.22967C29.8496 9.21245 30.0539 9.19524 30.2582 9.17803C30.122 8.71327 29.9773 8.25712 29.8241 7.80957C29.4411 7.80957 29.0751 7.8526 28.7432 7.91285C28.9134 8.35179 29.0751 8.79933 29.2283 9.25549C29.356 9.24688 29.4922 9.23827 29.6283 9.22967Z" fill="#F9396F"/>
<path d="M14.6646 28.6028C17.3542 25.0655 21.2183 21.924 26.1633 19.2818C26.8272 18.9289 27.5166 18.5588 28.189 18.2146L28.206 18.206C32.8021 15.7961 37.5513 13.3002 39.0919 10.3739C39.3813 9.8231 39.211 9.13457 38.7004 8.77309C37.6535 8.02431 36.5045 7.28414 35.2788 6.55258C33.2447 5.33904 30.9041 4.70215 28.5209 4.70215C25.7803 4.70215 23.1503 5.52839 20.9034 7.08619C16.3498 10.2534 12.6049 13.7133 9.78768 17.3711C3.70214 25.2634 4.25537 32.5791 5.79591 37.3213C5.80442 37.3471 5.81293 37.373 5.82144 37.3902C5.83846 37.3471 5.84697 37.2611 5.84697 37.1234C5.76186 35.6172 5.90655 34.0508 6.26402 32.4844C6.59596 31.0299 7.09813 29.5667 7.75349 28.1294C8.35779 26.8126 9.10678 25.4786 9.97492 24.1704C10.775 22.9827 11.6687 21.8208 12.7241 20.6244C13.7199 19.4884 14.7668 18.4211 15.8392 17.4486C16.9541 16.4244 18.1032 15.4777 19.2352 14.6342C19.3458 14.5568 19.4735 14.5137 19.6011 14.5137C19.7373 14.5137 19.8735 14.5568 19.9756 14.6514C20.1033 14.7633 20.1799 14.9268 20.1799 15.099C20.1799 15.2711 20.1033 15.426 19.9756 15.5379C17.7372 17.4658 15.7285 19.5486 14.0007 21.7089C13.0985 22.8363 12.2815 24.0155 11.558 25.2032C10.792 26.4511 10.1452 27.7163 9.63448 28.9643C9.08976 30.2897 8.68973 31.6323 8.4429 32.9492C8.18756 34.3004 8.06841 35.6861 8.08543 37.0459C8.10245 41.2374 10.1026 44.7058 11.4644 46.4444C11.5325 46.539 11.6772 46.453 11.6346 46.3411C10.6558 43.9657 10.2728 41.3406 10.5282 38.6812C10.8601 35.1611 12.2559 31.77 14.6646 28.6028ZM26.4016 7.68865C26.674 7.39603 27.0314 7.15504 27.474 6.9657C27.4145 6.81078 27.3549 6.65586 27.2953 6.50954C27.2187 6.30298 27.3123 6.0706 27.5166 5.99314C27.7123 5.91569 27.9336 6.00175 28.0188 6.1997C28.0868 6.35462 28.1634 6.52676 28.2486 6.7161C28.5975 6.63004 28.972 6.5784 29.3635 6.55258C29.321 6.43208 29.2699 6.31159 29.2188 6.1911C29.1337 5.98454 29.2359 5.75216 29.4401 5.6747C29.6359 5.59724 29.8572 5.68331 29.9423 5.88126C30.0359 6.07921 30.1295 6.29438 30.2317 6.54397C30.6147 6.56118 30.9892 6.59561 31.3552 6.66446C31.6956 6.72471 31.9339 7.06037 31.8743 7.40463C31.8148 7.7489 31.4828 7.98989 31.1424 7.92964C31.0232 7.91243 30.8955 7.88661 30.7679 7.878C30.9296 8.29112 31.0828 8.73006 31.236 9.169C32.0275 9.20342 32.6148 9.39277 33.0829 9.75425C33.6872 10.2362 33.9085 11.0366 33.6277 11.7596C33.4149 12.3104 32.9978 12.7321 32.3935 13.0162C32.4531 13.2313 32.5042 13.4465 32.5638 13.6617C32.6063 13.8166 32.5808 13.9801 32.5042 14.1178C32.4276 14.2555 32.2999 14.3502 32.1467 14.3932C31.9935 14.4363 31.8318 14.4104 31.6956 14.333C31.5594 14.2555 31.4658 14.1264 31.4232 13.9715C31.4232 13.9629 31.4147 13.9543 31.4147 13.9457C31.3722 13.7477 31.3296 13.5584 31.2956 13.3604C31.0317 13.4035 30.7423 13.4379 30.4359 13.4465C30.4955 13.6789 30.5551 13.9113 30.6147 14.1436C30.6913 14.4621 30.4955 14.7891 30.1806 14.8666C30.1295 14.8752 30.087 14.8838 30.0359 14.8838C29.9338 14.8838 29.8231 14.858 29.7295 14.7977C29.5933 14.7117 29.4997 14.5826 29.4657 14.4277C29.4657 14.419 29.4572 14.4104 29.4572 14.4018C29.3891 14.0662 29.321 13.7305 29.2614 13.4121C28.5464 13.3518 27.9677 13.2313 27.6017 13.1453C27.44 13.1022 27.2953 12.999 27.2102 12.8526C27.1251 12.7063 27.091 12.5342 27.1336 12.3707C27.1761 12.2071 27.2783 12.0608 27.423 11.9748C27.5677 11.8887 27.7379 11.8543 27.8996 11.8973C28.2315 11.9748 28.5975 12.0436 28.972 12.0866C28.8529 11.5702 28.7337 11.0711 28.606 10.5891C28.0613 10.5977 27.6443 10.5547 27.2868 10.4514C26.674 10.2706 26.1718 9.78007 26.0101 9.19482C25.8654 8.6526 26.0101 8.11038 26.4016 7.68865Z" fill="#F9396F"/>
<path d="M28.2496 9.28976C28.1389 8.91968 28.0198 8.54098 27.9006 8.1709C26.8963 8.44631 27.4495 9.43607 28.2496 9.28976Z" fill="#F9396F"/>
<path d="M31.6777 10.4951C31.8054 10.8996 31.9246 11.3214 32.0522 11.7345C32.6055 11.6398 32.8693 10.5209 31.6777 10.4951Z" fill="#F9396F"/>
<path d="M29.6309 10.5103C29.7926 11.0353 29.9543 11.5861 30.1075 12.1369C30.4394 12.1369 30.7458 12.1111 31.0182 12.0767C30.882 11.5086 30.7458 10.9578 30.6096 10.4414C30.3203 10.4586 30.0054 10.4844 29.733 10.5017L29.6309 10.5103Z" fill="#F9396F"/>
<path d="M46.7189 17.4405C45.6465 15.1081 43.7314 12.7843 41.0163 10.5293C40.9653 10.4863 40.8887 10.5035 40.8631 10.5724C39.7397 13.3093 36.5309 15.504 33.7137 17.1478C33.6371 17.1909 33.6541 17.3027 33.7307 17.3286C36.0288 18.0946 38.2332 19.1446 40.2844 20.4442C42.1058 21.5975 43.808 22.9573 45.34 24.4893C45.9188 24.9885 46.472 25.5651 46.9912 26.2106C47.0423 26.2709 47.1444 26.2536 47.1615 26.1762C47.17 26.1504 47.1785 26.1332 47.187 26.1073C47.187 26.0987 47.1955 26.0815 47.187 26.0729C47.1359 25.2897 47.0508 24.3602 46.8295 23.4221C46.7274 22.9831 46.5827 22.5356 46.4125 22.0794C46.2422 21.6405 46.0465 21.2016 45.8252 20.7712C45.6039 20.3409 45.3571 19.9192 45.1017 19.5147C44.8464 19.1187 44.574 18.7056 44.2761 18.3011C43.774 17.6126 43.1952 16.8982 42.4037 15.9773C42.259 15.8138 42.2334 15.5728 42.3356 15.3921C42.4122 15.2458 42.5484 15.1511 42.7101 15.1253C42.8633 15.0994 43.025 15.1425 43.1356 15.2458C43.9697 15.9859 44.6932 16.7003 45.34 17.4318C45.706 17.8364 46.038 18.2495 46.3359 18.654C46.6763 19.1101 46.9742 19.5405 47.2295 19.9708C47.2976 20.0827 47.3657 20.1946 47.4338 20.3151C47.4934 20.4097 47.6381 20.3581 47.6211 20.2462C47.4338 19.2909 47.1359 18.3528 46.7189 17.4405Z" fill="#F9396F"/>
<path d="M122.84 39.6702C122.635 39.5719 122.418 39.5172 122.213 39.5172C121.889 39.5172 121.608 39.5609 121.37 39.6593C121.133 39.7576 120.906 39.8778 120.69 40.0307C120.474 40.1837 120.258 40.3366 120.02 40.5005C119.782 40.6644 119.523 40.8173 119.221 40.9703C118.918 41.1232 118.572 41.2434 118.162 41.3417C117.751 41.44 117.254 41.4837 116.682 41.4837C115.461 41.4837 114.488 41.1451 113.786 40.4786C113.073 39.8122 112.619 38.7525 112.403 37.2995C114.877 37.0482 116.908 36.7095 118.507 36.2725C120.106 35.8355 121.349 35.3002 122.256 34.6775C123.153 34.0547 123.747 33.3446 124.039 32.5362C124.331 31.7277 124.417 30.8428 124.298 29.8705C124.212 29.215 123.974 28.5595 123.564 27.904C123.153 27.2485 122.613 26.6585 121.932 26.1341C121.252 25.6097 120.431 25.1836 119.48 24.8559C118.529 24.5281 117.47 24.3643 116.303 24.3643C115.126 24.3643 114.024 24.5281 113.019 24.845C112.014 25.1618 111.107 25.6097 110.296 26.1887C109.486 26.7678 108.784 27.4451 108.179 28.2536C107.574 29.0511 107.088 29.9251 106.731 30.8756C106.364 31.826 106.115 32.8421 105.996 33.9236C105.867 35.0052 105.878 36.1086 106.029 37.2448C106.202 38.5995 106.569 39.8341 107.142 40.9375C107.714 42.0409 108.438 42.9914 109.313 43.778C110.188 44.5646 111.204 45.1764 112.338 45.6025C113.473 46.0285 114.694 46.247 115.99 46.247C117.027 46.247 117.978 46.1596 118.842 45.9958C119.696 45.8319 120.495 45.5806 121.23 45.231C121.965 44.8814 122.667 44.4335 123.337 43.8982C124.007 43.3628 124.687 42.7183 125.368 41.9754L123.445 40.0635C123.24 39.8996 123.045 39.7685 122.84 39.6702ZM113.765 29.9032C114.478 29.062 115.374 28.6469 116.455 28.6469C117.071 28.6469 117.546 28.7998 117.859 29.1166C118.183 29.4335 118.367 29.7612 118.41 30.1217C118.453 30.4823 118.41 30.81 118.291 31.1159C118.173 31.4218 117.892 31.7059 117.459 31.979C117.027 32.2412 116.401 32.4925 115.59 32.7219C114.78 32.9513 113.7 33.1589 112.36 33.3665C112.587 31.9025 113.051 30.7445 113.765 29.9032Z" fill="#121821"/>
<path d="M181.499 45.5919L181.445 25.7412C181.445 25.5008 179.997 25.3042 178.214 25.3042C176.432 25.3042 174.984 25.5008 174.984 25.7412C174.984 25.7412 174.984 25.7412 174.984 25.7521L175.038 45.5919H175.06C175.049 45.6029 175.049 45.6247 175.049 45.6356C175.049 45.8869 176.496 46.0945 178.279 46.0945C180.062 46.0945 181.509 45.8869 181.509 45.6356C181.509 45.6247 181.509 45.6029 181.499 45.5919Z" fill="#121821"/>
<path d="M96.1767 16.8902C95.7661 16.9994 95.4528 17.2835 95.2259 17.7532L87.7928 33.4853C87.5768 33.9223 87.3823 34.3593 87.1878 34.7963C86.9934 35.2333 86.8205 35.6812 86.6476 36.1291C86.3235 35.2223 85.9562 34.3374 85.5564 33.4853L78.1774 17.7314C78.0585 17.4692 77.9289 17.2725 77.7884 17.1414C77.648 16.9994 77.4859 16.9011 77.3022 16.8465C77.1186 16.7809 76.9133 16.7591 76.6864 16.7591C76.4595 16.7591 76.2002 16.7591 75.9085 16.7591H70.6794L70.6362 45.6011H70.647C70.6362 45.612 70.6362 45.6339 70.6362 45.6448C70.6362 45.8961 71.9975 46.1036 73.6721 46.1036C75.3467 46.1036 76.708 45.8961 76.708 45.6448C76.708 45.6339 76.708 45.612 76.6972 45.6011H76.708L76.6108 29.1152C76.6108 28.7547 76.5892 28.3614 76.5568 27.9244C76.5244 27.4874 76.492 27.0395 76.4595 26.5697L83.8062 42.0395C84.0223 42.4875 84.3356 42.8371 84.7677 43.0665C85.1999 43.2959 85.6753 43.4161 86.2155 43.4161H87.1446C87.674 43.4161 88.1602 43.3068 88.5815 43.0774C89.0029 42.848 89.327 42.5093 89.5431 42.0395L96.8465 26.6134C96.7925 27.0941 96.7493 27.553 96.7169 28.0009C96.6845 28.4488 96.6629 28.853 96.6737 29.2245L96.7061 45.6011H96.7169C96.7061 45.612 96.7061 45.6339 96.7061 45.6448C96.7061 45.8961 98.0566 46.1036 99.7204 46.1036C101.384 46.1036 102.735 45.8961 102.735 45.6448C102.735 45.6339 102.735 45.612 102.724 45.6011H102.735L102.778 16.7372H97.3759C96.987 16.7263 96.5872 16.7809 96.1767 16.8902Z" fill="#121821"/>
<path d="M134.841 40.9152C134.193 40.937 133.793 40.6202 133.772 39.5933L133.75 16.8255V16.8146C133.75 16.5633 132.356 16.3667 130.638 16.3667C128.921 16.3667 127.527 16.5743 127.527 16.8146L127.538 39.5386C127.494 44.8154 130.736 46.2466 134.668 46.2466C135.554 46.2466 136.408 46.0936 137.196 45.8096C137.196 45.8096 136.548 43.3842 136.148 41.8766C135.997 41.2866 135.457 40.8933 134.841 40.9152Z" fill="#121821"/>
<path d="M146.59 40.9152C145.942 40.937 145.542 40.6202 145.521 39.5933L145.499 16.8255V16.8146C145.499 16.5633 144.105 16.3667 142.387 16.3667C140.67 16.3667 139.276 16.5743 139.276 16.8146L139.287 39.5386C139.243 44.8154 142.485 46.2466 146.417 46.2466C147.303 46.2466 148.157 46.0936 148.945 45.8096C148.945 45.8096 148.297 43.3842 147.897 41.8766C147.746 41.2866 147.195 40.8933 146.59 40.9152Z" fill="#121821"/>
<path d="M166.995 16.3667C165.223 16.3667 163.786 16.5743 163.786 16.8146H163.775L163.732 25.9152C163.127 25.4345 162.435 25.0521 161.679 24.7571C160.923 24.4621 160.091 24.3201 159.183 24.3201C158.243 24.3201 157.347 24.4949 156.504 24.8336C155.661 25.1723 154.883 25.653 154.16 26.2538C153.446 26.8656 152.809 27.5976 152.247 28.4498C151.696 29.3019 151.242 30.2415 150.897 31.2684C150.551 32.2954 150.313 33.3879 150.194 34.5568C150.076 35.7258 150.086 36.9276 150.249 38.1621C150.432 39.5823 150.735 40.8059 151.167 41.822C151.599 42.838 152.128 43.6792 152.744 44.3347C153.371 44.9902 154.073 45.4709 154.851 45.7768C155.64 46.0827 156.482 46.2357 157.379 46.2357C158.74 46.2357 159.983 45.8752 161.106 45.1432C162.219 44.4112 163.202 43.4061 164.034 42.1169C164.034 42.1169 164.229 44.9575 164.348 45.5911H164.358C164.348 45.602 164.348 45.6239 164.348 45.6348C164.348 45.8861 165.644 46.0936 167.232 46.0936C168.82 46.0936 170.117 45.8861 170.117 45.6348C170.117 45.6239 170.117 45.602 170.106 45.5911H170.128L170.193 16.8255V16.8146C170.203 16.5633 168.766 16.3667 166.995 16.3667ZM163.699 35.0375C163.527 35.9225 163.3 36.7528 162.997 37.5284C162.705 38.3041 162.36 38.9705 161.971 39.5496C161.582 40.1286 161.171 40.5765 160.728 40.9043C160.285 41.232 159.842 41.3959 159.389 41.3959C158.719 41.3959 158.135 41.09 157.649 40.4782C157.163 39.8664 156.839 38.8831 156.666 37.5394C156.536 36.4687 156.526 35.4308 156.666 34.4039C156.796 33.3769 157.044 32.4702 157.411 31.6617C157.779 30.8642 158.243 30.2196 158.827 29.728C159.399 29.2364 160.069 28.9851 160.836 28.9851C161.29 28.9851 161.765 29.0506 162.284 29.1927C162.803 29.3347 163.278 29.5532 163.732 29.87L163.699 35.0375Z" fill="#121821"/>
<path d="M205.456 45.5907H205.467L205.413 33.0924C205.402 32.8193 205.402 32.5571 205.392 32.2949C205.381 32.0327 205.359 31.7814 205.327 31.5411C205.197 30.4923 204.938 29.5637 204.549 28.7552C204.171 27.9468 203.695 27.2694 203.134 26.7122C202.572 26.1551 201.934 25.7399 201.21 25.4559C200.497 25.1718 199.73 25.0298 198.909 25.0298C197.57 25.0298 196.316 25.3575 195.149 26.0021C193.983 26.6467 192.956 27.6627 192.07 29.0283L191.854 27.324C191.768 26.6248 191.509 26.1223 191.098 25.8164C190.677 25.5105 190.136 25.3575 189.456 25.3575H186.085L186.139 45.6125H186.15C186.139 45.6234 186.139 45.6453 186.139 45.6562C186.139 45.9075 187.598 46.1151 189.402 46.1151C191.206 46.1151 192.665 45.9075 192.665 45.6562C192.665 45.6453 192.654 45.6234 192.654 45.6125H192.675L192.567 36.075C192.675 35.1682 192.881 34.3488 193.183 33.6059C193.486 32.863 193.831 32.2294 194.242 31.705C194.652 31.1806 195.095 30.7873 195.582 30.4923C196.068 30.2082 196.543 30.0662 197.029 30.0662C197.548 30.0662 197.958 30.2082 198.25 30.4814C198.542 30.7654 198.736 31.268 198.834 31.989C198.855 32.1529 198.866 32.3277 198.877 32.5134C198.888 32.6991 198.888 32.8958 198.888 33.1143L198.942 45.6125H198.963C198.952 45.6234 198.952 45.6453 198.952 45.6562C198.952 45.9075 200.422 46.1151 202.226 46.1151C204.03 46.1151 205.5 45.9075 205.5 45.6562C205.467 45.6234 205.467 45.6016 205.456 45.5907Z" fill="#121821"/>
<path d="M181.455 18.5845C181.185 18.1475 180.861 17.7542 180.472 17.4264C180.083 17.0878 179.651 16.8365 179.176 16.6507C178.7 16.465 178.214 16.3667 177.728 16.3667C177.252 16.3667 176.799 16.465 176.388 16.6617C175.978 16.8583 175.61 17.1205 175.308 17.4483C175.005 17.787 174.768 18.1693 174.616 18.6063C174.465 19.0433 174.422 19.5131 174.487 20.0047C174.552 20.4964 174.714 20.9661 174.973 21.3922C175.232 21.8292 175.545 22.2116 175.924 22.5284C176.302 22.8562 176.723 23.1184 177.188 23.3041C177.652 23.5007 178.117 23.5991 178.603 23.5991C179.089 23.5991 179.543 23.5007 179.975 23.3041C180.407 23.1074 180.785 22.8452 181.099 22.5284C181.412 22.2007 181.65 21.8183 181.823 21.3922C181.985 20.9552 182.039 20.4964 181.974 20.0047C181.887 19.5022 181.725 19.0215 181.455 18.5845Z" fill="#F9396F"/>
</g>
</g>
<defs>
<clipPath id="clip0_649_4215">
<rect width="205" height="66" fill="white" transform="translate(0.5)"/>
</clipPath>
<clipPath id="clip1_649_4215">
<rect width="205" height="66" fill="white" transform="translate(0.5)"/>
</clipPath>
</defs>
</svg>
