<svg width="130" height="130" viewBox="0 0 130 130" fill="none" xmlns="http://www.w3.org/2000/svg">
<rect width="130" height="130" fill="white"/>
<path fill-rule="evenodd" clip-rule="evenodd" d="M3.8075 13.3264V22.8453H13.3263H22.8452V13.3264V3.80762H13.3263H3.8075V13.3264ZM33.7238 5.16745C33.7238 6.49682 33.633 6.52728 29.6443 6.52728C25.6557 6.52728 25.5648 6.55774 25.5648 7.88711C25.5648 9.21649 25.6557 9.24695 29.6443 9.24695C33.633 9.24695 33.7238 9.27741 33.7238 10.6068C33.7238 11.9362 33.633 11.9666 29.6443 11.9666C25.6557 11.9666 25.5648 11.9971 25.5648 13.3264C25.5648 14.4143 25.8368 14.6863 26.9246 14.6863C28.0125 14.6863 28.2845 14.9582 28.2845 16.0461C28.2845 17.134 28.0125 17.4059 26.9246 17.4059C25.6557 17.4059 25.5648 17.5871 25.5648 20.1256C25.5648 22.6641 25.6557 22.8453 26.9246 22.8453C28.0125 22.8453 28.2845 23.1172 28.2845 24.2051C28.2845 25.5345 28.1936 25.5649 24.205 25.5649C20.2163 25.5649 20.1255 25.5954 20.1255 26.9248C20.1255 28.1938 20.3066 28.2846 22.8452 28.2846C25.3837 28.2846 25.5648 28.3754 25.5648 29.6444C25.5648 30.9134 25.7459 31.0043 28.2845 31.0043H31.0041V33.7239V36.4436H25.5648H20.1255V37.8034C20.1255 38.8913 19.8535 39.1633 18.7657 39.1633C17.6778 39.1633 17.4058 39.4352 17.4058 40.5231C17.4058 41.7921 17.2247 41.8829 14.6862 41.8829C12.1476 41.8829 11.9665 41.7921 11.9665 40.5231C11.9665 39.4352 12.2385 39.1633 13.3263 39.1633C14.4142 39.1633 14.6862 38.8913 14.6862 37.8034C14.6862 36.5344 14.505 36.4436 11.9665 36.4436H9.24683V39.1633C9.24683 41.7018 9.33766 41.8829 10.6067 41.8829C11.6945 41.8829 11.9665 42.1549 11.9665 43.2428C11.9665 44.5118 12.1476 44.6026 14.6862 44.6026C17.2247 44.6026 17.4058 44.5118 17.4058 43.2428C17.4058 42.1549 17.6778 41.8829 18.7657 41.8829C19.8535 41.8829 20.1255 42.1549 20.1255 43.2428C20.1255 44.3306 20.3975 44.6026 21.4853 44.6026C22.5732 44.6026 22.8452 44.8746 22.8452 45.9624C22.8452 47.2314 22.664 47.3223 20.1255 47.3223C17.587 47.3223 17.4058 47.4131 17.4058 48.6821C17.4058 50.0115 17.4967 50.0419 21.4853 50.0419C25.474 50.0419 25.5648 50.0724 25.5648 51.4018C25.5648 52.7311 25.474 52.7616 21.4853 52.7616H17.4058V55.4813C17.4058 58.0198 17.315 58.2009 16.046 58.2009C14.777 58.2009 14.6862 58.3821 14.6862 60.9206C14.6862 63.4591 14.5953 63.6403 13.3263 63.6403C12.0573 63.6403 11.9665 63.8214 11.9665 66.3599C11.9665 68.8985 11.8757 69.0796 10.6067 69.0796C9.51879 69.0796 9.24683 68.8076 9.24683 67.7197C9.24683 66.6319 8.97486 66.3599 7.88699 66.3599C6.79913 66.3599 6.52716 66.6319 6.52716 67.7197C6.52716 68.8076 6.25519 69.0796 5.16733 69.0796C4.07946 69.0796 3.8075 69.3515 3.8075 70.4394V71.7992H14.6862H25.5648V73.1591C25.5648 74.4281 25.7459 74.5189 28.2845 74.5189C30.823 74.5189 31.0041 74.6097 31.0041 75.8787C31.0041 77.1477 30.823 77.2386 28.2845 77.2386H25.5648V79.9582C25.5648 82.4968 25.474 82.6779 24.205 82.6779C23.1171 82.6779 22.8452 82.4059 22.8452 81.3181C22.8452 80.0491 22.664 79.9582 20.1255 79.9582C17.587 79.9582 17.4058 79.8674 17.4058 78.5984C17.4058 77.3294 17.587 77.2386 20.1255 77.2386C22.664 77.2386 22.8452 77.1477 22.8452 75.8787V74.5189H16.046H9.24683V75.8787C9.24683 77.1477 9.0657 77.2386 6.52716 77.2386H3.8075V81.3181C3.8075 85.3067 3.83796 85.3976 5.16733 85.3976C6.43632 85.3976 6.52716 85.2164 6.52716 82.6779C6.52716 80.1394 6.618 79.9582 7.88699 79.9582C8.97486 79.9582 9.24683 79.6863 9.24683 78.5984C9.24683 77.3294 9.42796 77.2386 11.9665 77.2386C14.505 77.2386 14.6862 77.3294 14.6862 78.5984C14.6862 79.6863 14.4142 79.9582 13.3263 79.9582C12.0573 79.9582 11.9665 80.1394 11.9665 82.6779C11.9665 85.2164 11.8757 85.3976 10.6067 85.3976C9.51879 85.3976 9.24683 85.6695 9.24683 86.7574C9.24683 88.0264 9.42796 88.1172 11.9665 88.1172C14.505 88.1172 14.6862 88.2081 14.6862 89.4771C14.6862 90.5649 14.9581 90.8369 16.046 90.8369C17.1339 90.8369 17.4058 90.5649 17.4058 89.4771C17.4058 88.2081 17.587 88.1172 20.1255 88.1172C22.664 88.1172 22.8452 88.0264 22.8452 86.7574C22.8452 85.6695 23.1171 85.3976 24.205 85.3976C25.2928 85.3976 25.5648 85.6695 25.5648 86.7574C25.5648 87.8453 25.8368 88.1172 26.9246 88.1172C28.0125 88.1172 28.2845 87.8453 28.2845 86.7574C28.2845 85.6695 28.0125 85.3976 26.9246 85.3976C25.8368 85.3976 25.5648 85.1256 25.5648 84.0377C25.5648 82.7084 25.6557 82.6779 29.6443 82.6779C33.633 82.6779 33.7238 82.7084 33.7238 84.0377C33.7238 85.3671 33.8146 85.3976 37.8033 85.3976C41.792 85.3976 41.8828 85.3671 41.8828 84.0377C41.8828 82.9499 41.6108 82.6779 40.523 82.6779C39.254 82.6779 39.1631 82.4968 39.1631 79.9582C39.1631 77.4197 39.254 77.2386 40.523 77.2386C41.6108 77.2386 41.8828 77.5105 41.8828 78.5984C41.8828 79.6863 42.1548 79.9582 43.2426 79.9582C44.3305 79.9582 44.6025 79.6863 44.6025 78.5984C44.6025 77.5105 44.8744 77.2386 45.9623 77.2386C47.0502 77.2386 47.3221 77.5105 47.3221 78.5984C47.3221 79.6863 47.5941 79.9582 48.682 79.9582C49.951 79.9582 50.0418 80.1394 50.0418 82.6779V85.3976H47.3221H44.6025V92.1967V98.9959H43.2426C41.9736 98.9959 41.8828 98.8148 41.8828 96.2762C41.8828 93.7377 41.792 93.5566 40.523 93.5566C39.4351 93.5566 39.1631 93.2846 39.1631 92.1967C39.1631 91.1089 39.4351 90.8369 40.523 90.8369C41.6108 90.8369 41.8828 90.5649 41.8828 89.4771C41.8828 88.2081 41.7017 88.1172 39.1631 88.1172H36.4435V90.8369C36.4435 93.3754 36.3526 93.5566 35.0836 93.5566C33.9958 93.5566 33.7238 93.2846 33.7238 92.1967C33.7238 91.1089 33.4518 90.8369 32.364 90.8369H31.0041V97.6361V104.435H29.6443C28.5564 104.435 28.2845 104.163 28.2845 103.075C28.2845 101.988 28.0125 101.716 26.9246 101.716C25.5953 101.716 25.5648 101.806 25.5648 105.795V109.875H28.2845C30.823 109.875 31.0041 109.965 31.0041 111.234C31.0041 112.322 31.2761 112.594 32.364 112.594C33.4518 112.594 33.7238 112.866 33.7238 113.954C33.7238 115.223 33.5427 115.314 31.0041 115.314C28.4656 115.314 28.2845 115.223 28.2845 113.954C28.2845 112.866 28.0125 112.594 26.9246 112.594H25.5648V119.393V126.193H26.9246C28.0125 126.193 28.2845 125.921 28.2845 124.833C28.2845 123.564 28.4656 123.473 31.0041 123.473C33.5427 123.473 33.7238 123.564 33.7238 124.833C33.7238 126.102 33.9049 126.193 36.4435 126.193H39.1631V123.473C39.1631 120.934 39.254 120.753 40.523 120.753C41.792 120.753 41.8828 120.934 41.8828 123.473C41.8828 126.011 41.9736 126.193 43.2426 126.193C44.5116 126.193 44.6025 126.011 44.6025 123.473V120.753H47.3221C49.8607 120.753 50.0418 120.844 50.0418 122.113C50.0418 123.201 50.3138 123.473 51.4016 123.473C52.4895 123.473 52.7615 123.745 52.7615 124.833C52.7615 125.921 53.0334 126.193 54.1213 126.193C55.2092 126.193 55.4811 125.921 55.4811 124.833C55.4811 123.745 55.2092 123.473 54.1213 123.473C53.0334 123.473 52.7615 123.201 52.7615 122.113C52.7615 120.844 52.9426 120.753 55.4811 120.753C58.0197 120.753 58.2008 120.662 58.2008 119.393C58.2008 118.124 58.3819 118.034 60.9205 118.034C63.459 118.034 63.6401 118.124 63.6401 119.393C63.6401 120.481 63.9121 120.753 65 120.753C66.0878 120.753 66.3598 121.025 66.3598 122.113C66.3598 123.201 66.0878 123.473 65 123.473C63.9121 123.473 63.6401 123.745 63.6401 124.833C63.6401 126.102 63.8213 126.193 66.3598 126.193H69.0795V123.473C69.0795 120.934 69.1703 120.753 70.4393 120.753C71.5272 120.753 71.7991 121.025 71.7991 122.113C71.7991 123.201 72.0711 123.473 73.159 123.473C74.2468 123.473 74.5188 123.745 74.5188 124.833C74.5188 125.921 74.7908 126.193 75.8786 126.193C76.9665 126.193 77.2385 125.921 77.2385 124.833C77.2385 123.745 76.9665 123.473 75.8786 123.473C74.6096 123.473 74.5188 123.292 74.5188 120.753V118.034H71.7991C69.2606 118.034 69.0795 117.943 69.0795 116.674C69.0795 115.344 69.1703 115.314 73.159 115.314C77.1476 115.314 77.2385 115.344 77.2385 116.674C77.2385 117.943 77.4196 118.034 79.9581 118.034C82.4967 118.034 82.6778 118.124 82.6778 119.393C82.6778 120.481 82.9498 120.753 84.0376 120.753C85.1255 120.753 85.3975 121.025 85.3975 122.113C85.3975 123.201 85.6694 123.473 86.7573 123.473C87.8451 123.473 88.1171 123.745 88.1171 124.833C88.1171 125.921 88.3891 126.193 89.4769 126.193C90.8063 126.193 90.8368 126.102 90.8368 122.113V118.034H93.5564C96.095 118.034 96.2761 118.124 96.2761 119.393C96.2761 120.481 96.0041 120.753 94.9163 120.753C93.6473 120.753 93.5564 120.934 93.5564 123.473V126.193H103.075H112.594V124.833C112.594 123.745 112.866 123.473 113.954 123.473C115.042 123.473 115.314 123.745 115.314 124.833C115.314 126.162 115.405 126.193 119.393 126.193C123.382 126.193 123.473 126.162 123.473 124.833C123.473 123.745 123.745 123.473 124.833 123.473C125.92 123.473 126.192 123.201 126.192 122.113C126.192 120.784 126.102 120.753 122.113 120.753C118.124 120.753 118.033 120.784 118.033 122.113C118.033 123.201 117.761 123.473 116.674 123.473C115.405 123.473 115.314 123.292 115.314 120.753V118.034H119.393C123.382 118.034 123.473 118.003 123.473 116.674C123.473 115.344 123.382 115.314 119.393 115.314H115.314V112.594C115.314 110.056 115.405 109.875 116.674 109.875C117.761 109.875 118.033 109.603 118.033 108.515C118.033 107.427 118.305 107.155 119.393 107.155C120.662 107.155 120.753 106.974 120.753 104.435C120.753 101.897 120.662 101.716 119.393 101.716C118.305 101.716 118.033 101.444 118.033 100.356C118.033 99.2679 117.761 98.9959 116.674 98.9959C115.586 98.9959 115.314 98.7239 115.314 97.6361C115.314 96.3671 115.495 96.2762 118.033 96.2762C120.572 96.2762 120.753 96.3671 120.753 97.6361C120.753 98.7239 121.025 98.9959 122.113 98.9959C123.442 98.9959 123.473 99.0867 123.473 103.075C123.473 107.064 123.503 107.155 124.833 107.155C126.162 107.155 126.192 107.064 126.192 103.075C126.192 99.0867 126.162 98.9959 124.833 98.9959C123.745 98.9959 123.473 98.7239 123.473 97.6361C123.473 96.5482 123.201 96.2762 122.113 96.2762C121.025 96.2762 120.753 96.0043 120.753 94.9164C120.753 93.8285 120.481 93.5566 119.393 93.5566C118.305 93.5566 118.033 93.2846 118.033 92.1967C118.033 90.8674 118.124 90.8369 122.113 90.8369C126.102 90.8369 126.192 90.8064 126.192 89.4771C126.192 88.1477 126.102 88.1172 122.113 88.1172C118.124 88.1172 118.033 88.0868 118.033 86.7574C118.033 85.6695 118.305 85.3976 119.393 85.3976C120.723 85.3976 120.753 85.3067 120.753 81.3181V77.2386H123.473C126.011 77.2386 126.192 77.1477 126.192 75.8787C126.192 74.6097 126.011 74.5189 123.473 74.5189C120.934 74.5189 120.753 74.4281 120.753 73.1591C120.753 72.0712 121.025 71.7992 122.113 71.7992C123.201 71.7992 123.473 71.5273 123.473 70.4394C123.473 69.3515 123.745 69.0796 124.833 69.0796C125.92 69.0796 126.192 68.8076 126.192 67.7197C126.192 66.6319 125.92 66.3599 124.833 66.3599C123.745 66.3599 123.473 66.0879 123.473 65.0001C123.473 63.9122 123.201 63.6403 122.113 63.6403C121.025 63.6403 120.753 63.3683 120.753 62.2804C120.753 61.1926 121.025 60.9206 122.113 60.9206C123.201 60.9206 123.473 60.6486 123.473 59.5608C123.473 58.4729 123.745 58.2009 124.833 58.2009C126.102 58.2009 126.192 58.0198 126.192 55.4813C126.192 52.9427 126.102 52.7616 124.833 52.7616C123.564 52.7616 123.473 52.9427 123.473 55.4813C123.473 58.0198 123.382 58.2009 122.113 58.2009C121.025 58.2009 120.753 57.929 120.753 56.8411C120.753 55.7532 120.481 55.4813 119.393 55.4813C118.305 55.4813 118.033 55.2093 118.033 54.1214C118.033 53.0336 118.305 52.7616 119.393 52.7616C120.481 52.7616 120.753 52.4896 120.753 51.4018C120.753 50.3139 121.025 50.0419 122.113 50.0419C123.201 50.0419 123.473 49.77 123.473 48.6821C123.473 47.5942 123.745 47.3223 124.833 47.3223C125.92 47.3223 126.192 47.0503 126.192 45.9624C126.192 44.8746 125.92 44.6026 124.833 44.6026C123.503 44.6026 123.473 44.5118 123.473 40.5231C123.473 36.5344 123.503 36.4436 124.833 36.4436C125.92 36.4436 126.192 36.1716 126.192 35.0838C126.192 33.9959 125.92 33.7239 124.833 33.7239C123.745 33.7239 123.473 33.452 123.473 32.3641C123.473 31.2762 123.201 31.0043 122.113 31.0043C121.025 31.0043 120.753 30.7323 120.753 29.6444C120.753 28.5566 121.025 28.2846 122.113 28.2846C123.201 28.2846 123.473 28.0126 123.473 26.9248C123.473 25.8369 123.201 25.5649 122.113 25.5649C121.025 25.5649 120.753 25.8369 120.753 26.9248C120.753 28.0126 120.481 28.2846 119.393 28.2846C118.305 28.2846 118.033 28.0126 118.033 26.9248C118.033 25.8369 117.761 25.5649 116.674 25.5649C115.586 25.5649 115.314 25.8369 115.314 26.9248C115.314 28.0126 115.042 28.2846 113.954 28.2846C112.866 28.2846 112.594 28.0126 112.594 26.9248C112.594 25.8369 112.322 25.5649 111.234 25.5649C110.146 25.5649 109.874 25.8369 109.874 26.9248C109.874 28.0126 110.146 28.2846 111.234 28.2846C112.322 28.2846 112.594 28.5566 112.594 29.6444C112.594 30.7323 112.866 31.0043 113.954 31.0043C115.042 31.0043 115.314 30.7323 115.314 29.6444C115.314 28.5566 115.586 28.2846 116.674 28.2846C117.761 28.2846 118.033 28.5566 118.033 29.6444C118.033 30.7323 118.305 31.0043 119.393 31.0043C120.481 31.0043 120.753 31.2762 120.753 32.3641C120.753 33.6331 120.572 33.7239 118.033 33.7239H115.314V36.4436V39.1633H112.594C110.056 39.1633 109.874 39.0724 109.874 37.8034C109.874 36.5344 109.693 36.4436 107.155 36.4436C104.616 36.4436 104.435 36.3528 104.435 35.0838C104.435 33.9959 104.163 33.7239 103.075 33.7239C101.987 33.7239 101.715 33.452 101.715 32.3641C101.715 31.2762 101.987 31.0043 103.075 31.0043C104.163 31.0043 104.435 30.7323 104.435 29.6444C104.435 28.5566 104.707 28.2846 105.795 28.2846C106.883 28.2846 107.155 28.0126 107.155 26.9248C107.155 25.8369 106.883 25.5649 105.795 25.5649C104.526 25.5649 104.435 25.3838 104.435 22.8453C104.435 20.3067 104.344 20.1256 103.075 20.1256C101.987 20.1256 101.715 20.3976 101.715 21.4854C101.715 22.5733 101.443 22.8453 100.356 22.8453C99.2677 22.8453 98.9958 22.5733 98.9958 21.4854C98.9958 20.3976 98.7238 20.1256 97.6359 20.1256C96.5481 20.1256 96.2761 20.3976 96.2761 21.4854C96.2761 22.5733 96.5481 22.8453 97.6359 22.8453C98.7238 22.8453 98.9958 23.1172 98.9958 24.2051C98.9958 25.4741 98.8146 25.5649 96.2761 25.5649C93.7376 25.5649 93.5564 25.6558 93.5564 26.9248C93.5564 28.0126 93.2845 28.2846 92.1966 28.2846C90.9276 28.2846 90.8368 28.1035 90.8368 25.5649C90.8368 23.0264 90.9276 22.8453 92.1966 22.8453C93.2845 22.8453 93.5564 22.5733 93.5564 21.4854C93.5564 20.3976 93.2845 20.1256 92.1966 20.1256C91.1087 20.1256 90.8368 20.3976 90.8368 21.4854C90.8368 22.5733 90.5648 22.8453 89.4769 22.8453C88.208 22.8453 88.1171 22.6641 88.1171 20.1256V17.4059H96.2761H104.435V14.6863C104.435 12.1477 104.344 11.9666 103.075 11.9666C101.806 11.9666 101.715 11.7855 101.715 9.24695C101.715 6.70841 101.806 6.52728 103.075 6.52728C104.163 6.52728 104.435 6.25532 104.435 5.16745C104.435 4.07958 104.163 3.80762 103.075 3.80762C101.987 3.80762 101.715 4.07958 101.715 5.16745C101.715 6.25532 101.443 6.52728 100.356 6.52728C99.0262 6.52728 98.9958 6.61812 98.9958 10.6068V14.6863H89.4769H79.9581V13.3264C79.9581 12.2386 80.2301 11.9666 81.318 11.9666C82.4058 11.9666 82.6778 11.6946 82.6778 10.6068C82.6778 9.51891 82.4058 9.24695 81.318 9.24695C80.2301 9.24695 79.9581 8.97498 79.9581 7.88711C79.9581 6.61812 80.1392 6.52728 82.6778 6.52728C85.2163 6.52728 85.3975 6.43645 85.3975 5.16745C85.3975 3.89845 85.2163 3.80762 82.6778 3.80762C80.1392 3.80762 79.9581 3.89845 79.9581 5.16745C79.9581 6.25532 79.6862 6.52728 78.5983 6.52728C77.5104 6.52728 77.2385 6.25532 77.2385 5.16745C77.2385 4.07958 76.9665 3.80762 75.8786 3.80762C74.7908 3.80762 74.5188 4.07958 74.5188 5.16745C74.5188 6.25532 74.7908 6.52728 75.8786 6.52728C77.1476 6.52728 77.2385 6.70841 77.2385 9.24695C77.2385 11.7855 77.1476 11.9666 75.8786 11.9666C74.7908 11.9666 74.5188 11.6946 74.5188 10.6068C74.5188 9.51891 74.2468 9.24695 73.159 9.24695C72.0711 9.24695 71.7991 8.97498 71.7991 7.88711V6.52728H65H58.2008V5.16745C58.2008 3.83808 58.11 3.80762 54.1213 3.80762C50.1326 3.80762 50.0418 3.83808 50.0418 5.16745C50.0418 6.25532 50.3138 6.52728 51.4016 6.52728C52.4895 6.52728 52.7615 6.79925 52.7615 7.88711C52.7615 8.97498 53.0334 9.24695 54.1213 9.24695C55.2092 9.24695 55.4811 8.97498 55.4811 7.88711C55.4811 6.79925 55.7531 6.52728 56.841 6.52728C57.9288 6.52728 58.2008 6.79925 58.2008 7.88711C58.2008 8.97498 58.4728 9.24695 59.5606 9.24695C60.6485 9.24695 60.9205 9.51891 60.9205 10.6068C60.9205 11.6946 61.1924 11.9666 62.2803 11.9666C63.3682 11.9666 63.6401 12.2386 63.6401 13.3264C63.6401 14.6558 63.5493 14.6863 59.5606 14.6863C55.572 14.6863 55.4811 14.6558 55.4811 13.3264C55.4811 11.9971 55.3903 11.9666 51.4016 11.9666C47.413 11.9666 47.3221 11.9362 47.3221 10.6068C47.3221 9.33778 47.141 9.24695 44.6025 9.24695H41.8828V6.52728V3.80762H37.8033C33.8146 3.80762 33.7238 3.83808 33.7238 5.16745ZM44.6025 5.16745C44.6025 6.25532 44.8744 6.52728 45.9623 6.52728C47.0502 6.52728 47.3221 6.25532 47.3221 5.16745C47.3221 4.07958 47.0502 3.80762 45.9623 3.80762C44.8744 3.80762 44.6025 4.07958 44.6025 5.16745ZM90.8368 5.16745C90.8368 6.25532 90.5648 6.52728 89.4769 6.52728C88.3891 6.52728 88.1171 6.79925 88.1171 7.88711C88.1171 8.97498 87.8451 9.24695 86.7573 9.24695C85.6694 9.24695 85.3975 9.51891 85.3975 10.6068C85.3975 11.9362 85.4883 11.9666 89.4769 11.9666C93.4656 11.9666 93.5564 11.9362 93.5564 10.6068C93.5564 9.51891 93.8284 9.24695 94.9163 9.24695C96.0041 9.24695 96.2761 8.97498 96.2761 7.88711C96.2761 6.79925 96.0041 6.52728 94.9163 6.52728C93.8284 6.52728 93.5564 6.25532 93.5564 5.16745C93.5564 4.07958 93.2845 3.80762 92.1966 3.80762C91.1087 3.80762 90.8368 4.07958 90.8368 5.16745ZM107.155 13.3264V22.8453H116.674H126.192V13.3264V3.80762H116.674H107.155V13.3264ZM20.1255 13.3264V20.1256H13.3263H6.52716V13.3264V6.52728H13.3263H20.1255V13.3264ZM93.5564 7.88711C93.5564 8.97498 93.2845 9.24695 92.1966 9.24695C91.1087 9.24695 90.8368 8.97498 90.8368 7.88711C90.8368 6.79925 91.1087 6.52728 92.1966 6.52728C93.2845 6.52728 93.5564 6.79925 93.5564 7.88711ZM123.473 13.3264V20.1256H116.674H109.874V13.3264V6.52728H116.674H123.473V13.3264ZM9.24683 13.3264V17.4059H13.3263H17.4058V13.3264V9.24695H13.3263H9.24683V13.3264ZM41.8828 10.6068C41.8828 11.6946 41.6108 11.9666 40.523 11.9666C39.254 11.9666 39.1631 12.1477 39.1631 14.6863C39.1631 17.2248 39.0723 17.4059 37.8033 17.4059C36.5343 17.4059 36.4435 17.5871 36.4435 20.1256C36.4435 22.6641 36.5343 22.8453 37.8033 22.8453C38.8912 22.8453 39.1631 22.5733 39.1631 21.4854C39.1631 20.3976 39.4351 20.1256 40.523 20.1256C41.792 20.1256 41.8828 20.3067 41.8828 22.8453C41.8828 25.3838 41.792 25.5649 40.523 25.5649C39.4351 25.5649 39.1631 25.8369 39.1631 26.9248C39.1631 28.2541 39.254 28.2846 43.2426 28.2846C47.2313 28.2846 47.3221 28.2541 47.3221 26.9248C47.3221 25.8369 47.0502 25.5649 45.9623 25.5649C44.6933 25.5649 44.6025 25.3838 44.6025 22.8453C44.6025 20.3067 44.6933 20.1256 45.9623 20.1256C47.0502 20.1256 47.3221 20.3976 47.3221 21.4854C47.3221 22.5733 47.5941 22.8453 48.682 22.8453C49.951 22.8453 50.0418 22.6641 50.0418 20.1256V17.4059H47.3221H44.6025V14.6863C44.6025 12.1477 44.6933 11.9666 45.9623 11.9666C47.0502 11.9666 47.3221 12.2386 47.3221 13.3264C47.3221 14.4143 47.5941 14.6863 48.682 14.6863C49.7698 14.6863 50.0418 14.9582 50.0418 16.0461C50.0418 17.134 50.3138 17.4059 51.4016 17.4059C52.6706 17.4059 52.7615 17.5871 52.7615 20.1256C52.7615 22.6641 52.8523 22.8453 54.1213 22.8453C55.2092 22.8453 55.4811 22.5733 55.4811 21.4854C55.4811 20.3976 55.7531 20.1256 56.841 20.1256C58.11 20.1256 58.2008 20.3067 58.2008 22.8453V25.5649H55.4811C52.9426 25.5649 52.7615 25.6558 52.7615 26.9248C52.7615 28.0126 53.0334 28.2846 54.1213 28.2846C55.2092 28.2846 55.4811 28.5566 55.4811 29.6444C55.4811 30.7323 55.7531 31.0043 56.841 31.0043C57.9288 31.0043 58.2008 30.7323 58.2008 29.6444C58.2008 28.5566 58.4728 28.2846 59.5606 28.2846C60.8296 28.2846 60.9205 28.4657 60.9205 31.0043V33.7239H63.6401C66.1787 33.7239 66.3598 33.6331 66.3598 32.3641C66.3598 31.2762 66.0878 31.0043 65 31.0043C63.9121 31.0043 63.6401 30.7323 63.6401 29.6444C63.6401 28.3754 63.8213 28.2846 66.3598 28.2846H69.0795V31.0043C69.0795 33.5428 69.1703 33.7239 70.4393 33.7239C71.7083 33.7239 71.7991 33.5428 71.7991 31.0043V28.2846H74.5188C77.0573 28.2846 77.2385 28.1938 77.2385 26.9248C77.2385 25.6558 77.0573 25.5649 74.5188 25.5649H71.7991V20.1256V14.6863H74.5188C77.0573 14.6863 77.2385 14.7771 77.2385 16.0461C77.2385 17.3151 77.4196 17.4059 79.9581 17.4059C82.4967 17.4059 82.6778 17.4968 82.6778 18.7658C82.6778 19.8536 82.9498 20.1256 84.0376 20.1256C85.1255 20.1256 85.3975 20.3976 85.3975 21.4854C85.3975 22.5733 85.1255 22.8453 84.0376 22.8453C82.9498 22.8453 82.6778 23.1172 82.6778 24.2051C82.6778 25.4741 82.8589 25.5649 85.3975 25.5649C87.936 25.5649 88.1171 25.6558 88.1171 26.9248C88.1171 28.0126 88.3891 28.2846 89.4769 28.2846C90.5648 28.2846 90.8368 28.5566 90.8368 29.6444C90.8368 30.9134 91.0179 31.0043 93.5564 31.0043C96.095 31.0043 96.2761 30.9134 96.2761 29.6444C96.2761 28.3754 96.4572 28.2846 98.9958 28.2846C101.534 28.2846 101.715 28.1938 101.715 26.9248C101.715 25.8369 101.987 25.5649 103.075 25.5649C104.163 25.5649 104.435 25.8369 104.435 26.9248C104.435 28.0126 104.163 28.2846 103.075 28.2846C101.987 28.2846 101.715 28.5566 101.715 29.6444C101.715 30.7323 101.443 31.0043 100.356 31.0043C99.0866 31.0043 98.9958 31.1854 98.9958 33.7239V36.4436H101.715C104.254 36.4436 104.435 36.5344 104.435 37.8034C104.435 39.0724 104.616 39.1633 107.155 39.1633C109.693 39.1633 109.874 39.2541 109.874 40.5231C109.874 41.611 109.602 41.8829 108.515 41.8829C107.427 41.8829 107.155 42.1549 107.155 43.2428C107.155 44.5118 107.336 44.6026 109.874 44.6026C112.413 44.6026 112.594 44.5118 112.594 43.2428C112.594 42.1549 112.866 41.8829 113.954 41.8829C115.223 41.8829 115.314 42.0641 115.314 44.6026C115.314 47.1411 115.405 47.3223 116.674 47.3223C117.943 47.3223 118.033 47.5034 118.033 50.0419C118.033 52.5805 117.943 52.7616 116.674 52.7616C115.586 52.7616 115.314 53.0336 115.314 54.1214C115.314 55.2093 115.586 55.4813 116.674 55.4813C117.761 55.4813 118.033 55.7532 118.033 56.8411C118.033 57.929 118.305 58.2009 119.393 58.2009C120.481 58.2009 120.753 58.4729 120.753 59.5608C120.753 60.8297 120.572 60.9206 118.033 60.9206H115.314V58.2009C115.314 55.6624 115.223 55.4813 113.954 55.4813C112.866 55.4813 112.594 55.7532 112.594 56.8411C112.594 58.1705 112.503 58.2009 108.515 58.2009C104.526 58.2009 104.435 58.1705 104.435 56.8411C104.435 55.7532 104.163 55.4813 103.075 55.4813C101.987 55.4813 101.715 55.2093 101.715 54.1214C101.715 53.0336 101.987 52.7616 103.075 52.7616C104.344 52.7616 104.435 52.5805 104.435 50.0419C104.435 47.5034 104.526 47.3223 105.795 47.3223C106.883 47.3223 107.155 47.0503 107.155 45.9624C107.155 44.6934 106.974 44.6026 104.435 44.6026C101.897 44.6026 101.715 44.5118 101.715 43.2428C101.715 42.1549 101.443 41.8829 100.356 41.8829C99.0866 41.8829 98.9958 42.0641 98.9958 44.6026C98.9958 47.1411 99.0866 47.3223 100.356 47.3223C101.443 47.3223 101.715 47.5942 101.715 48.6821C101.715 49.77 101.443 50.0419 100.356 50.0419C99.0262 50.0419 98.9958 50.1328 98.9958 54.1214C98.9958 58.1101 98.9653 58.2009 97.6359 58.2009C96.3066 58.2009 96.2761 58.1101 96.2761 54.1214V50.0419H92.1966H88.1171V52.7616C88.1171 55.3001 88.0263 55.4813 86.7573 55.4813C85.6694 55.4813 85.3975 55.7532 85.3975 56.8411C85.3975 57.929 85.6694 58.2009 86.7573 58.2009C87.8451 58.2009 88.1171 58.4729 88.1171 59.5608C88.1171 60.6486 88.3891 60.9206 89.4769 60.9206C90.8063 60.9206 90.8368 60.8297 90.8368 56.8411C90.8368 52.8524 90.8672 52.7616 92.1966 52.7616C93.526 52.7616 93.5564 52.8524 93.5564 56.8411V60.9206H96.2761H98.9958V65.0001C98.9958 68.9887 99.0262 69.0796 100.356 69.0796C101.443 69.0796 101.715 69.3515 101.715 70.4394C101.715 71.5273 101.987 71.7992 103.075 71.7992C104.163 71.7992 104.435 72.0712 104.435 73.1591C104.435 74.4885 104.526 74.5189 108.515 74.5189C112.503 74.5189 112.594 74.4885 112.594 73.1591C112.594 72.0712 112.866 71.7992 113.954 71.7992C115.223 71.7992 115.314 71.6181 115.314 69.0796C115.314 66.541 115.405 66.3599 116.674 66.3599C117.761 66.3599 118.033 66.0879 118.033 65.0001C118.033 63.9122 118.305 63.6403 119.393 63.6403C120.481 63.6403 120.753 63.9122 120.753 65.0001C120.753 66.0879 121.025 66.3599 122.113 66.3599C123.201 66.3599 123.473 66.6319 123.473 67.7197C123.473 68.8076 123.201 69.0796 122.113 69.0796C121.025 69.0796 120.753 68.8076 120.753 67.7197C120.753 66.6319 120.481 66.3599 119.393 66.3599C118.064 66.3599 118.033 66.4508 118.033 70.4394C118.033 74.4281 118.064 74.5189 119.393 74.5189C120.481 74.5189 120.753 74.7909 120.753 75.8787C120.753 76.9666 120.481 77.2386 119.393 77.2386C118.124 77.2386 118.033 77.4197 118.033 79.9582C118.033 82.4968 117.943 82.6779 116.674 82.6779C115.586 82.6779 115.314 82.4059 115.314 81.3181C115.314 80.2302 115.042 79.9582 113.954 79.9582C112.685 79.9582 112.594 80.1394 112.594 82.6779C112.594 85.2164 112.503 85.3976 111.234 85.3976C110.146 85.3976 109.874 85.1256 109.874 84.0377C109.874 82.9499 109.602 82.6779 108.515 82.6779C107.427 82.6779 107.155 82.9499 107.155 84.0377C107.155 85.3067 106.974 85.3976 104.435 85.3976C101.897 85.3976 101.715 85.4884 101.715 86.7574C101.715 88.0264 101.897 88.1172 104.435 88.1172C106.974 88.1172 107.155 88.2081 107.155 89.4771C107.155 90.7461 107.336 90.8369 109.874 90.8369C112.413 90.8369 112.594 90.7461 112.594 89.4771C112.594 88.2081 112.775 88.1172 115.314 88.1172C117.852 88.1172 118.033 88.2081 118.033 89.4771C118.033 90.5649 117.761 90.8369 116.674 90.8369C115.586 90.8369 115.314 91.1089 115.314 92.1967C115.314 93.5261 115.223 93.5566 111.234 93.5566H107.155V96.2762V98.9959H111.234C115.223 98.9959 115.314 99.0264 115.314 100.356C115.314 101.685 115.223 101.716 111.234 101.716C107.246 101.716 107.155 101.685 107.155 100.356C107.155 99.2679 106.883 98.9959 105.795 98.9959C104.707 98.9959 104.435 98.7239 104.435 97.6361C104.435 96.5482 104.163 96.2762 103.075 96.2762C101.806 96.2762 101.715 96.4574 101.715 98.9959V101.716H98.9958C96.4572 101.716 96.2761 101.806 96.2761 103.075C96.2761 104.344 96.4572 104.435 98.9958 104.435C101.534 104.435 101.715 104.526 101.715 105.795C101.715 107.064 101.534 107.155 98.9958 107.155C96.4572 107.155 96.2761 107.246 96.2761 108.515C96.2761 109.603 96.5481 109.875 97.6359 109.875C98.7238 109.875 98.9958 110.147 98.9958 111.234C98.9958 112.322 99.2677 112.594 100.356 112.594C101.443 112.594 101.715 112.866 101.715 113.954C101.715 115.042 101.987 115.314 103.075 115.314C104.405 115.314 104.435 115.405 104.435 119.393V123.473H100.356C96.3669 123.473 96.2761 123.442 96.2761 122.113C96.2761 120.844 96.4572 120.753 98.9958 120.753C101.534 120.753 101.715 120.662 101.715 119.393C101.715 118.124 101.534 118.034 98.9958 118.034C96.4572 118.034 96.2761 117.943 96.2761 116.674C96.2761 115.586 96.5481 115.314 97.6359 115.314C98.7238 115.314 98.9958 115.042 98.9958 113.954C98.9958 112.685 98.8146 112.594 96.2761 112.594C93.7376 112.594 93.5564 112.503 93.5564 111.234C93.5564 110.147 93.2845 109.875 92.1966 109.875C91.1087 109.875 90.8368 109.603 90.8368 108.515C90.8368 107.427 90.5648 107.155 89.4769 107.155C88.3891 107.155 88.1171 107.427 88.1171 108.515C88.1171 109.603 87.8451 109.875 86.7573 109.875C85.6694 109.875 85.3975 109.603 85.3975 108.515C85.3975 107.427 85.1255 107.155 84.0376 107.155C82.9498 107.155 82.6778 107.427 82.6778 108.515C82.6778 109.603 82.4058 109.875 81.318 109.875C80.2301 109.875 79.9581 109.603 79.9581 108.515C79.9581 107.427 79.6862 107.155 78.5983 107.155C77.3293 107.155 77.2385 107.336 77.2385 109.875C77.2385 112.413 77.3293 112.594 78.5983 112.594C79.6862 112.594 79.9581 112.866 79.9581 113.954C79.9581 115.042 79.6862 115.314 78.5983 115.314C77.5104 115.314 77.2385 115.042 77.2385 113.954C77.2385 112.685 77.0573 112.594 74.5188 112.594H71.7991V108.515V104.435H75.8786C79.8673 104.435 79.9581 104.405 79.9581 103.075C79.9581 101.988 80.2301 101.716 81.318 101.716C82.4058 101.716 82.6778 101.988 82.6778 103.075C82.6778 104.163 82.9498 104.435 84.0376 104.435C85.1255 104.435 85.3975 104.163 85.3975 103.075C85.3975 101.806 85.5786 101.716 88.1171 101.716H90.8368V98.9959V96.2762H88.1171C85.5786 96.2762 85.3975 96.3671 85.3975 97.6361C85.3975 98.9654 85.3066 98.9959 81.318 98.9959C77.3293 98.9959 77.2385 99.0264 77.2385 100.356V101.716H71.7991H66.3598V100.356C66.3598 99.0867 66.1787 98.9959 63.6401 98.9959H60.9205V96.2762C60.9205 93.7377 60.8296 93.5566 59.5606 93.5566C58.2916 93.5566 58.2008 93.7377 58.2008 96.2762C58.2008 98.8148 58.11 98.9959 56.841 98.9959C55.5116 98.9959 55.4811 98.9051 55.4811 94.9164V90.8369H52.7615H50.0418V94.9164C50.0418 98.9051 50.0723 98.9959 51.4016 98.9959C52.6706 98.9959 52.7615 99.177 52.7615 101.716V104.435H50.0418C47.5033 104.435 47.3221 104.526 47.3221 105.795C47.3221 106.883 47.0502 107.155 45.9623 107.155C44.8744 107.155 44.6025 106.883 44.6025 105.795C44.6025 104.707 44.3305 104.435 43.2426 104.435C42.1548 104.435 41.8828 104.707 41.8828 105.795C41.8828 106.883 41.6108 107.155 40.523 107.155C39.4351 107.155 39.1631 107.427 39.1631 108.515C39.1631 109.603 39.4351 109.875 40.523 109.875C41.6108 109.875 41.8828 110.147 41.8828 111.234C41.8828 112.322 41.6108 112.594 40.523 112.594C39.4351 112.594 39.1631 112.322 39.1631 111.234C39.1631 109.965 38.982 109.875 36.4435 109.875C33.9049 109.875 33.7238 109.784 33.7238 108.515C33.7238 107.427 33.4518 107.155 32.364 107.155C31.2761 107.155 31.0041 106.883 31.0041 105.795C31.0041 104.526 31.1853 104.435 33.7238 104.435C36.2623 104.435 36.4435 104.526 36.4435 105.795C36.4435 106.883 36.7154 107.155 37.8033 107.155C39.0723 107.155 39.1631 106.974 39.1631 104.435C39.1631 101.897 39.0723 101.716 37.8033 101.716C36.7154 101.716 36.4435 101.444 36.4435 100.356C36.4435 99.2679 36.1715 98.9959 35.0836 98.9959C33.9958 98.9959 33.7238 98.7239 33.7238 97.6361C33.7238 96.5482 33.9958 96.2762 35.0836 96.2762C36.1715 96.2762 36.4435 96.0043 36.4435 94.9164C36.4435 93.8285 36.7154 93.5566 37.8033 93.5566C39.1327 93.5566 39.1631 93.6474 39.1631 97.6361V101.716H41.8828C44.4213 101.716 44.6025 101.806 44.6025 103.075C44.6025 104.163 44.8744 104.435 45.9623 104.435H47.3221V96.2762V88.1172H51.4016C55.3903 88.1172 55.4811 88.1477 55.4811 89.4771V90.8369H63.6401H71.7991V86.7574C71.7991 82.7687 71.7687 82.6779 70.4393 82.6779C69.3514 82.6779 69.0795 82.9499 69.0795 84.0377C69.0795 85.1256 68.8075 85.3976 67.7196 85.3976C66.6318 85.3976 66.3598 85.6695 66.3598 86.7574C66.3598 88.0868 66.269 88.1172 62.2803 88.1172C58.2916 88.1172 58.2008 88.0868 58.2008 86.7574C58.2008 85.6695 58.4728 85.3976 59.5606 85.3976C60.8296 85.3976 60.9205 85.2164 60.9205 82.6779C60.9205 80.1394 60.8296 79.9582 59.5606 79.9582C58.4728 79.9582 58.2008 80.2302 58.2008 81.3181C58.2008 82.4059 57.9288 82.6779 56.841 82.6779C55.7531 82.6779 55.4811 82.4059 55.4811 81.3181C55.4811 80.0491 55.3 79.9582 52.7615 79.9582H50.0418V75.8787C50.0418 71.8901 50.0113 71.7992 48.682 71.7992C47.5941 71.7992 47.3221 72.0712 47.3221 73.1591C47.3221 74.2469 47.0502 74.5189 45.9623 74.5189C44.8744 74.5189 44.6025 74.7909 44.6025 75.8787C44.6025 76.9666 44.3305 77.2386 43.2426 77.2386C42.1548 77.2386 41.8828 76.9666 41.8828 75.8787C41.8828 74.7909 41.6108 74.5189 40.523 74.5189C39.4351 74.5189 39.1631 74.2469 39.1631 73.1591C39.1631 71.8297 39.254 71.7992 43.2426 71.7992H47.3221V69.0796C47.3221 66.541 47.2313 66.3599 45.9623 66.3599C44.8744 66.3599 44.6025 66.0879 44.6025 65.0001C44.6025 63.7311 44.4213 63.6403 41.8828 63.6403C39.3443 63.6403 39.1631 63.5494 39.1631 62.2804C39.1631 61.1926 39.4351 60.9206 40.523 60.9206C41.6108 60.9206 41.8828 60.6486 41.8828 59.5608C41.8828 58.4729 42.1548 58.2009 43.2426 58.2009C44.5116 58.2009 44.6025 58.3821 44.6025 60.9206C44.6025 63.4591 44.6933 63.6403 45.9623 63.6403C47.0502 63.6403 47.3221 63.3683 47.3221 62.2804C47.3221 61.1926 47.5941 60.9206 48.682 60.9206C49.7698 60.9206 50.0418 60.6486 50.0418 59.5608C50.0418 58.4729 49.7698 58.2009 48.682 58.2009C47.5941 58.2009 47.3221 57.929 47.3221 56.8411C47.3221 55.5721 47.141 55.4813 44.6025 55.4813H41.8828V52.7616C41.8828 50.2231 41.792 50.0419 40.523 50.0419C39.4351 50.0419 39.1631 49.77 39.1631 48.6821C39.1631 47.5942 38.8912 47.3223 37.8033 47.3223C36.5343 47.3223 36.4435 47.5034 36.4435 50.0419C36.4435 52.5805 36.5343 52.7616 37.8033 52.7616C38.8912 52.7616 39.1631 53.0336 39.1631 54.1214C39.1631 55.2093 38.8912 55.4813 37.8033 55.4813C36.7154 55.4813 36.4435 55.2093 36.4435 54.1214C36.4435 52.8524 36.2623 52.7616 33.7238 52.7616C31.1853 52.7616 31.0041 52.8524 31.0041 54.1214C31.0041 55.2093 31.2761 55.4813 32.364 55.4813C33.4518 55.4813 33.7238 55.7532 33.7238 56.8411C33.7238 57.929 33.9958 58.2009 35.0836 58.2009C36.3526 58.2009 36.4435 58.3821 36.4435 60.9206V63.6403H33.7238H31.0041V66.3599C31.0041 68.8985 31.095 69.0796 32.364 69.0796C33.4518 69.0796 33.7238 68.8076 33.7238 67.7197C33.7238 66.3904 33.8146 66.3599 37.8033 66.3599C41.792 66.3599 41.8828 66.3904 41.8828 67.7197C41.8828 69.0491 41.792 69.0796 37.8033 69.0796C33.8146 69.0796 33.7238 69.11 33.7238 70.4394C33.7238 71.5273 33.9958 71.7992 35.0836 71.7992C36.1715 71.7992 36.4435 72.0712 36.4435 73.1591C36.4435 74.4281 36.2623 74.5189 33.7238 74.5189H31.0041V71.7992C31.0041 69.2607 30.9133 69.0796 29.6443 69.0796C28.3753 69.0796 28.2845 68.8985 28.2845 66.3599C28.2845 63.8214 28.3753 63.6403 29.6443 63.6403C30.7322 63.6403 31.0041 63.3683 31.0041 62.2804C31.0041 61.1926 30.7322 60.9206 29.6443 60.9206C28.5564 60.9206 28.2845 60.6486 28.2845 59.5608C28.2845 58.2314 28.1936 58.2009 24.205 58.2009C20.2163 58.2009 20.1255 58.1705 20.1255 56.8411C20.1255 55.5721 20.3066 55.4813 22.8452 55.4813C25.3837 55.4813 25.5648 55.3904 25.5648 54.1214C25.5648 52.8524 25.7459 52.7616 28.2845 52.7616H31.0041V50.0419C31.0041 47.5034 30.9133 47.3223 29.6443 47.3223C28.5564 47.3223 28.2845 47.5942 28.2845 48.6821C28.2845 49.77 28.0125 50.0419 26.9246 50.0419C25.6557 50.0419 25.5648 49.8608 25.5648 47.3223C25.5648 44.7837 25.474 44.6026 24.205 44.6026C23.1171 44.6026 22.8452 44.3306 22.8452 43.2428C22.8452 42.1549 22.5732 41.8829 21.4853 41.8829C20.3975 41.8829 20.1255 41.611 20.1255 40.5231C20.1255 39.2541 20.3066 39.1633 22.8452 39.1633H25.5648V41.8829V44.6026H28.2845C30.823 44.6026 31.0041 44.5118 31.0041 43.2428C31.0041 41.9738 31.1853 41.8829 33.7238 41.8829C36.2623 41.8829 36.4435 41.7921 36.4435 40.5231C36.4435 39.4352 36.1715 39.1633 35.0836 39.1633C33.9958 39.1633 33.7238 38.8913 33.7238 37.8034C33.7238 36.7156 33.9958 36.4436 35.0836 36.4436C36.1715 36.4436 36.4435 36.1716 36.4435 35.0838C36.4435 33.9959 36.7154 33.7239 37.8033 33.7239C38.8912 33.7239 39.1631 33.9959 39.1631 35.0838C39.1631 36.3528 39.3443 36.4436 41.8828 36.4436C44.4213 36.4436 44.6025 36.3528 44.6025 35.0838C44.6025 33.9959 44.3305 33.7239 43.2426 33.7239C42.1548 33.7239 41.8828 33.452 41.8828 32.3641C41.8828 31.0951 41.7017 31.0043 39.1631 31.0043C36.6246 31.0043 36.4435 30.9134 36.4435 29.6444C36.4435 28.5566 36.1715 28.2846 35.0836 28.2846C33.9958 28.2846 33.7238 28.5566 33.7238 29.6444C33.7238 30.7323 33.4518 31.0043 32.364 31.0043C31.2761 31.0043 31.0041 30.7323 31.0041 29.6444C31.0041 28.5566 31.2761 28.2846 32.364 28.2846C33.6934 28.2846 33.7238 28.1938 33.7238 24.2051C33.7238 20.2164 33.6934 20.1256 32.364 20.1256C31.2761 20.1256 31.0041 20.3976 31.0041 21.4854C31.0041 22.5733 30.7322 22.8453 29.6443 22.8453C28.5564 22.8453 28.2845 22.5733 28.2845 21.4854C28.2845 20.3976 28.5564 20.1256 29.6443 20.1256C30.7322 20.1256 31.0041 19.8536 31.0041 18.7658C31.0041 17.4968 31.1853 17.4059 33.7238 17.4059H36.4435V13.3264V9.24695H39.1631C41.7017 9.24695 41.8828 9.33778 41.8828 10.6068ZM66.3598 10.6068C66.3598 11.6946 66.6318 11.9666 67.7196 11.9666C68.8075 11.9666 69.0795 11.6946 69.0795 10.6068C69.0795 9.51891 69.3514 9.24695 70.4393 9.24695C71.5272 9.24695 71.7991 9.51891 71.7991 10.6068C71.7991 11.6946 71.5272 11.9666 70.4393 11.9666C69.3514 11.9666 69.0795 12.2386 69.0795 13.3264C69.0795 14.4143 68.8075 14.6863 67.7196 14.6863C66.6318 14.6863 66.3598 14.4143 66.3598 13.3264C66.3598 12.2386 66.0878 11.9666 65 11.9666C63.9121 11.9666 63.6401 11.6946 63.6401 10.6068C63.6401 9.51891 63.9121 9.24695 65 9.24695C66.0878 9.24695 66.3598 9.51891 66.3598 10.6068ZM112.594 13.3264V17.4059H116.674H120.753V13.3264V9.24695H116.674H112.594V13.3264ZM69.0795 21.4854V25.5649H65H60.9205V21.4854V17.4059H65H69.0795V21.4854ZM74.5188 20.1256C74.5188 22.6641 74.6096 22.8453 75.8786 22.8453C77.1476 22.8453 77.2385 22.6641 77.2385 20.1256C77.2385 17.5871 77.1476 17.4059 75.8786 17.4059C74.6096 17.4059 74.5188 17.5871 74.5188 20.1256ZM63.6401 21.4854C63.6401 22.5733 63.9121 22.8453 65 22.8453C66.0878 22.8453 66.3598 22.5733 66.3598 21.4854C66.3598 20.3976 66.0878 20.1256 65 20.1256C63.9121 20.1256 63.6401 20.3976 63.6401 21.4854ZM79.9581 21.4854C79.9581 22.5733 80.2301 22.8453 81.318 22.8453C82.4058 22.8453 82.6778 22.5733 82.6778 21.4854C82.6778 20.3976 82.4058 20.1256 81.318 20.1256C80.2301 20.1256 79.9581 20.3976 79.9581 21.4854ZM50.0418 24.2051C50.0418 25.293 50.3138 25.5649 51.4016 25.5649C52.4895 25.5649 52.7615 25.293 52.7615 24.2051C52.7615 23.1172 52.4895 22.8453 51.4016 22.8453C50.3138 22.8453 50.0418 23.1172 50.0418 24.2051ZM3.8075 33.7239V41.8829H5.16733H6.52716V36.4436V31.0043H7.88699C8.97486 31.0043 9.24683 31.2762 9.24683 32.3641C9.24683 33.452 9.51879 33.7239 10.6067 33.7239C11.6945 33.7239 11.9665 33.452 11.9665 32.3641C11.9665 31.2762 11.6945 31.0043 10.6067 31.0043C9.51879 31.0043 9.24683 30.7323 9.24683 29.6444C9.24683 28.3151 9.33766 28.2846 13.3263 28.2846C17.315 28.2846 17.4058 28.2541 17.4058 26.9248V25.5649H10.6067H3.8075V33.7239ZM47.3221 29.6444C47.3221 30.7323 47.0502 31.0043 45.9623 31.0043C44.8744 31.0043 44.6025 31.2762 44.6025 32.3641C44.6025 33.452 44.8744 33.7239 45.9623 33.7239C47.0502 33.7239 47.3221 33.9959 47.3221 35.0838C47.3221 36.1716 47.0502 36.4436 45.9623 36.4436C44.8744 36.4436 44.6025 36.7156 44.6025 37.8034C44.6025 39.0724 44.4213 39.1633 41.8828 39.1633C39.3443 39.1633 39.1631 39.2541 39.1631 40.5231C39.1631 41.611 38.8912 41.8829 37.8033 41.8829C36.7154 41.8829 36.4435 42.1549 36.4435 43.2428C36.4435 44.3306 36.7154 44.6026 37.8033 44.6026C38.8912 44.6026 39.1631 44.8746 39.1631 45.9624C39.1631 47.0503 39.4351 47.3223 40.523 47.3223C41.6108 47.3223 41.8828 47.0503 41.8828 45.9624C41.8828 44.8746 41.6108 44.6026 40.523 44.6026C39.4351 44.6026 39.1631 44.3306 39.1631 43.2428C39.1631 41.9134 39.254 41.8829 43.2426 41.8829C47.2313 41.8829 47.3221 41.9134 47.3221 43.2428C47.3221 44.3306 47.0502 44.6026 45.9623 44.6026C44.8744 44.6026 44.6025 44.8746 44.6025 45.9624C44.6025 47.0503 44.8744 47.3223 45.9623 47.3223C47.0502 47.3223 47.3221 47.0503 47.3221 45.9624C47.3221 44.8746 47.5941 44.6026 48.682 44.6026C49.7698 44.6026 50.0418 44.8746 50.0418 45.9624C50.0418 47.0503 50.3138 47.3223 51.4016 47.3223C52.731 47.3223 52.7615 47.4131 52.7615 51.4018C52.7615 55.3904 52.731 55.4813 51.4016 55.4813C50.3138 55.4813 50.0418 55.7532 50.0418 56.8411C50.0418 57.929 50.3138 58.2009 51.4016 58.2009C52.4895 58.2009 52.7615 58.4729 52.7615 59.5608C52.7615 60.6486 52.4895 60.9206 51.4016 60.9206C50.3138 60.9206 50.0418 61.1926 50.0418 62.2804C50.0418 63.3683 49.7698 63.6403 48.682 63.6403C47.5941 63.6403 47.3221 63.9122 47.3221 65.0001C47.3221 66.0879 47.5941 66.3599 48.682 66.3599C49.951 66.3599 50.0418 66.541 50.0418 69.0796V71.7992H54.1213C58.11 71.7992 58.2008 71.8297 58.2008 73.1591C58.2008 74.4281 58.0197 74.5189 55.4811 74.5189C52.9426 74.5189 52.7615 74.6097 52.7615 75.8787C52.7615 76.9666 53.0334 77.2386 54.1213 77.2386C55.2092 77.2386 55.4811 77.5105 55.4811 78.5984C55.4811 79.6863 55.7531 79.9582 56.841 79.9582C57.9288 79.9582 58.2008 79.6863 58.2008 78.5984C58.2008 77.5105 58.4728 77.2386 59.5606 77.2386C60.6485 77.2386 60.9205 77.5105 60.9205 78.5984C60.9205 79.8674 61.1016 79.9582 63.6401 79.9582C66.1787 79.9582 66.3598 80.0491 66.3598 81.3181C66.3598 82.4059 66.6318 82.6779 67.7196 82.6779C68.8075 82.6779 69.0795 82.4059 69.0795 81.3181C69.0795 80.2302 69.3514 79.9582 70.4393 79.9582C71.5272 79.9582 71.7991 80.2302 71.7991 81.3181C71.7991 82.6474 71.89 82.6779 75.8786 82.6779C79.8673 82.6779 79.9581 82.7084 79.9581 84.0377C79.9581 85.3067 79.777 85.3976 77.2385 85.3976C74.6999 85.3976 74.5188 85.4884 74.5188 86.7574C74.5188 88.0264 74.6999 88.1172 77.2385 88.1172C79.777 88.1172 79.9581 88.0264 79.9581 86.7574C79.9581 85.6695 80.2301 85.3976 81.318 85.3976C82.5869 85.3976 82.6778 85.5787 82.6778 88.1172V90.8369H85.3975C87.936 90.8369 88.1171 90.9277 88.1171 92.1967C88.1171 93.2846 88.3891 93.5566 89.4769 93.5566C90.5648 93.5566 90.8368 93.8285 90.8368 94.9164C90.8368 96.0043 91.1087 96.2762 92.1966 96.2762C93.4656 96.2762 93.5564 96.4574 93.5564 98.9959C93.5564 101.534 93.6473 101.716 94.9163 101.716C96.0041 101.716 96.2761 101.444 96.2761 100.356C96.2761 99.2679 96.5481 98.9959 97.6359 98.9959C98.7238 98.9959 98.9958 98.7239 98.9958 97.6361C98.9958 96.5482 99.2677 96.2762 100.356 96.2762C101.443 96.2762 101.715 96.0043 101.715 94.9164C101.715 93.6474 101.897 93.5566 104.435 93.5566C106.974 93.5566 107.155 93.4657 107.155 92.1967C107.155 90.9277 106.974 90.8369 104.435 90.8369C101.897 90.8369 101.715 90.7461 101.715 89.4771C101.715 88.3892 101.443 88.1172 100.356 88.1172C99.2677 88.1172 98.9958 87.8453 98.9958 86.7574C98.9958 85.6695 99.2677 85.3976 100.356 85.3976C101.443 85.3976 101.715 85.1256 101.715 84.0377C101.715 82.9499 101.987 82.6779 103.075 82.6779C104.344 82.6779 104.435 82.4968 104.435 79.9582C104.435 77.4197 104.344 77.2386 103.075 77.2386C101.806 77.2386 101.715 77.4197 101.715 79.9582C101.715 82.4968 101.625 82.6779 100.356 82.6779C99.2677 82.6779 98.9958 82.9499 98.9958 84.0377C98.9958 85.1256 98.7238 85.3976 97.6359 85.3976C96.3669 85.3976 96.2761 85.2164 96.2761 82.6779C96.2761 80.1394 96.1853 79.9582 94.9163 79.9582C93.8284 79.9582 93.5564 79.6863 93.5564 78.5984C93.5564 77.5105 93.8284 77.2386 94.9163 77.2386C96.1853 77.2386 96.2761 77.0574 96.2761 74.5189C96.2761 71.9804 96.3669 71.7992 97.6359 71.7992C98.7238 71.7992 98.9958 72.0712 98.9958 73.1591C98.9958 74.2469 99.2677 74.5189 100.356 74.5189C101.443 74.5189 101.715 74.2469 101.715 73.1591C101.715 72.0712 101.443 71.7992 100.356 71.7992C99.2677 71.7992 98.9958 71.5273 98.9958 70.4394C98.9958 69.3515 98.7238 69.0796 97.6359 69.0796C96.5481 69.0796 96.2761 69.3515 96.2761 70.4394C96.2761 71.5273 96.0041 71.7992 94.9163 71.7992C93.6473 71.7992 93.5564 71.6181 93.5564 69.0796V66.3599H90.8368H88.1171V63.6403C88.1171 61.1017 88.0263 60.9206 86.7573 60.9206C85.6694 60.9206 85.3975 60.6486 85.3975 59.5608C85.3975 58.4729 85.1255 58.2009 84.0376 58.2009C82.9498 58.2009 82.6778 57.929 82.6778 56.8411C82.6778 55.7532 82.9498 55.4813 84.0376 55.4813C85.367 55.4813 85.3975 55.3904 85.3975 51.4018V47.3223H89.4769C93.4656 47.3223 93.5564 47.2918 93.5564 45.9624C93.5564 44.8746 93.2845 44.6026 92.1966 44.6026C91.1087 44.6026 90.8368 44.3306 90.8368 43.2428C90.8368 42.1549 90.5648 41.8829 89.4769 41.8829C88.208 41.8829 88.1171 41.7018 88.1171 39.1633V36.4436H90.8368H93.5564V39.1633C93.5564 41.7018 93.6473 41.8829 94.9163 41.8829C96.0041 41.8829 96.2761 41.611 96.2761 40.5231C96.2761 39.4352 96.5481 39.1633 97.6359 39.1633C98.7238 39.1633 98.9958 38.8913 98.9958 37.8034C98.9958 36.5344 98.8146 36.4436 96.2761 36.4436C93.7376 36.4436 93.5564 36.3528 93.5564 35.0838C93.5564 33.9959 93.2845 33.7239 92.1966 33.7239C91.1087 33.7239 90.8368 33.452 90.8368 32.3641C90.8368 31.2762 90.5648 31.0043 89.4769 31.0043C88.3891 31.0043 88.1171 30.7323 88.1171 29.6444C88.1171 28.3151 88.0263 28.2846 84.0376 28.2846C80.049 28.2846 79.9581 28.3151 79.9581 29.6444C79.9581 30.7323 79.6862 31.0043 78.5983 31.0043C77.5104 31.0043 77.2385 31.2762 77.2385 32.3641C77.2385 33.452 77.5104 33.7239 78.5983 33.7239C79.8673 33.7239 79.9581 33.9051 79.9581 36.4436C79.9581 38.9821 79.8673 39.1633 78.5983 39.1633C77.5104 39.1633 77.2385 38.8913 77.2385 37.8034C77.2385 36.7156 76.9665 36.4436 75.8786 36.4436C74.7908 36.4436 74.5188 36.1716 74.5188 35.0838C74.5188 33.9959 74.2468 33.7239 73.159 33.7239C72.0711 33.7239 71.7991 33.9959 71.7991 35.0838C71.7991 36.1716 71.5272 36.4436 70.4393 36.4436C69.3514 36.4436 69.0795 36.1716 69.0795 35.0838C69.0795 33.9959 68.8075 33.7239 67.7196 33.7239C66.6318 33.7239 66.3598 33.9959 66.3598 35.0838C66.3598 36.4131 66.269 36.4436 62.2803 36.4436C58.2916 36.4436 58.2008 36.4131 58.2008 35.0838C58.2008 33.9959 57.9288 33.7239 56.841 33.7239C55.7531 33.7239 55.4811 33.452 55.4811 32.3641C55.4811 31.0951 55.3 31.0043 52.7615 31.0043C50.2229 31.0043 50.0418 30.9134 50.0418 29.6444C50.0418 28.5566 49.7698 28.2846 48.682 28.2846C47.5941 28.2846 47.3221 28.5566 47.3221 29.6444ZM20.1255 32.3641C20.1255 33.452 20.3975 33.7239 21.4853 33.7239C22.5732 33.7239 22.8452 33.452 22.8452 32.3641C22.8452 31.2762 22.5732 31.0043 21.4853 31.0043C20.3975 31.0043 20.1255 31.2762 20.1255 32.3641ZM85.3975 32.3641C85.3975 33.6331 85.2163 33.7239 82.6778 33.7239C80.1392 33.7239 79.9581 33.6331 79.9581 32.3641C79.9581 31.0951 80.1392 31.0043 82.6778 31.0043C85.2163 31.0043 85.3975 31.0951 85.3975 32.3641ZM52.7615 36.4436C52.7615 38.9821 52.8523 39.1633 54.1213 39.1633C55.2092 39.1633 55.4811 39.4352 55.4811 40.5231C55.4811 41.611 55.2092 41.8829 54.1213 41.8829C53.0334 41.8829 52.7615 42.1549 52.7615 43.2428C52.7615 44.3306 53.0334 44.6026 54.1213 44.6026C55.2092 44.6026 55.4811 44.8746 55.4811 45.9624C55.4811 47.2314 55.6623 47.3223 58.2008 47.3223C60.7393 47.3223 60.9205 47.4131 60.9205 48.6821C60.9205 49.77 61.1924 50.0419 62.2803 50.0419C63.3682 50.0419 63.6401 49.77 63.6401 48.6821C63.6401 47.4131 63.8213 47.3223 66.3598 47.3223C68.8983 47.3223 69.0795 47.2314 69.0795 45.9624C69.0795 44.6934 69.2606 44.6026 71.7991 44.6026H74.5188V41.8829C74.5188 39.3444 74.428 39.1633 73.159 39.1633C72.0711 39.1633 71.7991 38.8913 71.7991 37.8034C71.7991 36.7156 72.0711 36.4436 73.159 36.4436C74.2468 36.4436 74.5188 36.7156 74.5188 37.8034C74.5188 38.8913 74.7908 39.1633 75.8786 39.1633C76.9665 39.1633 77.2385 39.4352 77.2385 40.5231C77.2385 41.7921 77.4196 41.8829 79.9581 41.8829H82.6778V39.1633C82.6778 36.6247 82.7686 36.4436 84.0376 36.4436C85.3066 36.4436 85.3975 36.6247 85.3975 39.1633C85.3975 41.7018 85.4883 41.8829 86.7573 41.8829C87.8451 41.8829 88.1171 42.1549 88.1171 43.2428C88.1171 44.3306 87.8451 44.6026 86.7573 44.6026C85.6694 44.6026 85.3975 44.8746 85.3975 45.9624C85.3975 47.0503 85.1255 47.3223 84.0376 47.3223C82.9498 47.3223 82.6778 47.5942 82.6778 48.6821C82.6778 49.77 82.4058 50.0419 81.318 50.0419C80.2301 50.0419 79.9581 50.3139 79.9581 51.4018C79.9581 52.4896 80.2301 52.7616 81.318 52.7616C82.4058 52.7616 82.6778 53.0336 82.6778 54.1214C82.6778 55.2093 82.4058 55.4813 81.318 55.4813C80.2301 55.4813 79.9581 55.7532 79.9581 56.8411C79.9581 57.929 80.2301 58.2009 81.318 58.2009C82.4058 58.2009 82.6778 58.4729 82.6778 59.5608C82.6778 60.6486 82.4058 60.9206 81.318 60.9206C80.2301 60.9206 79.9581 61.1926 79.9581 62.2804C79.9581 63.3683 80.2301 63.6403 81.318 63.6403C82.5869 63.6403 82.6778 63.8214 82.6778 66.3599C82.6778 68.8985 82.5869 69.0796 81.318 69.0796C80.049 69.0796 79.9581 69.2607 79.9581 71.7992C79.9581 74.3378 80.049 74.5189 81.318 74.5189C82.4058 74.5189 82.6778 74.2469 82.6778 73.1591C82.6778 72.0712 82.9498 71.7992 84.0376 71.7992C85.1255 71.7992 85.3975 71.5273 85.3975 70.4394C85.3975 69.3515 85.6694 69.0796 86.7573 69.0796C87.8451 69.0796 88.1171 69.3515 88.1171 70.4394C88.1171 71.5273 88.3891 71.7992 89.4769 71.7992C90.5648 71.7992 90.8368 72.0712 90.8368 73.1591C90.8368 74.2469 91.1087 74.5189 92.1966 74.5189C93.2845 74.5189 93.5564 74.7909 93.5564 75.8787C93.5564 77.1477 93.3753 77.2386 90.8368 77.2386H88.1171V74.5189C88.1171 71.9804 88.0263 71.7992 86.7573 71.7992C85.4883 71.7992 85.3975 71.9804 85.3975 74.5189C85.3975 77.0574 85.3066 77.2386 84.0376 77.2386C82.9498 77.2386 82.6778 77.5105 82.6778 78.5984C82.6778 79.8674 82.8589 79.9582 85.3975 79.9582C87.936 79.9582 88.1171 80.0491 88.1171 81.3181C88.1171 82.6474 88.0263 82.6779 84.0376 82.6779H79.9581V78.5984C79.9581 74.6097 79.9277 74.5189 78.5983 74.5189C77.3293 74.5189 77.2385 74.7 77.2385 77.2386V79.9582H74.5188C71.9803 79.9582 71.7991 79.8674 71.7991 78.5984C71.7991 77.5105 71.5272 77.2386 70.4393 77.2386C69.3514 77.2386 69.0795 76.9666 69.0795 75.8787C69.0795 74.7909 68.8075 74.5189 67.7196 74.5189C66.6318 74.5189 66.3598 74.7909 66.3598 75.8787C66.3598 77.1477 66.1787 77.2386 63.6401 77.2386C61.1016 77.2386 60.9205 77.1477 60.9205 75.8787C60.9205 74.7909 61.1924 74.5189 62.2803 74.5189C63.3682 74.5189 63.6401 74.2469 63.6401 73.1591C63.6401 71.8901 63.8213 71.7992 66.3598 71.7992C68.8983 71.7992 69.0795 71.8901 69.0795 73.1591C69.0795 74.2469 69.3514 74.5189 70.4393 74.5189C71.5272 74.5189 71.7991 74.7909 71.7991 75.8787C71.7991 76.9666 72.0711 77.2386 73.159 77.2386C74.428 77.2386 74.5188 77.0574 74.5188 74.5189C74.5188 71.9804 74.6096 71.7992 75.8786 71.7992C76.9665 71.7992 77.2385 71.5273 77.2385 70.4394C77.2385 69.1704 77.0573 69.0796 74.5188 69.0796C71.9803 69.0796 71.7991 68.9887 71.7991 67.7197C71.7991 66.6319 72.0711 66.3599 73.159 66.3599C74.428 66.3599 74.5188 66.1788 74.5188 63.6403C74.5188 61.1017 74.428 60.9206 73.159 60.9206C72.0711 60.9206 71.7991 60.6486 71.7991 59.5608C71.7991 58.4729 71.5272 58.2009 70.4393 58.2009C69.3514 58.2009 69.0795 57.929 69.0795 56.8411C69.0795 55.7532 68.8075 55.4813 67.7196 55.4813C66.6318 55.4813 66.3598 55.7532 66.3598 56.8411C66.3598 58.1705 66.269 58.2009 62.2803 58.2009H58.2008V54.1214C58.2008 50.1328 58.1703 50.0419 56.841 50.0419C55.7531 50.0419 55.4811 49.77 55.4811 48.6821C55.4811 47.5942 55.2092 47.3223 54.1213 47.3223C53.0334 47.3223 52.7615 47.0503 52.7615 45.9624C52.7615 44.8746 52.4895 44.6026 51.4016 44.6026C50.3138 44.6026 50.0418 44.3306 50.0418 43.2428C50.0418 42.1549 49.7698 41.8829 48.682 41.8829C47.413 41.8829 47.3221 41.7018 47.3221 39.1633C47.3221 36.6247 47.413 36.4436 48.682 36.4436C49.7698 36.4436 50.0418 36.1716 50.0418 35.0838C50.0418 33.9959 50.3138 33.7239 51.4016 33.7239C52.6706 33.7239 52.7615 33.9051 52.7615 36.4436ZM69.0795 39.1633V41.8829H63.6401H58.2008V40.5231C58.2008 39.1937 58.2916 39.1633 62.2803 39.1633C66.269 39.1633 66.3598 39.1328 66.3598 37.8034C66.3598 36.7156 66.6318 36.4436 67.7196 36.4436C68.9886 36.4436 69.0795 36.6247 69.0795 39.1633ZM50.0418 40.5231C50.0418 41.611 50.3138 41.8829 51.4016 41.8829C52.4895 41.8829 52.7615 41.611 52.7615 40.5231C52.7615 39.4352 52.4895 39.1633 51.4016 39.1633C50.3138 39.1633 50.0418 39.4352 50.0418 40.5231ZM101.715 40.5231C101.715 41.611 101.987 41.8829 103.075 41.8829C104.163 41.8829 104.435 41.611 104.435 40.5231C104.435 39.4352 104.163 39.1633 103.075 39.1633C101.987 39.1633 101.715 39.4352 101.715 40.5231ZM120.753 43.2428C120.753 44.3306 121.025 44.6026 122.113 44.6026C123.201 44.6026 123.473 44.8746 123.473 45.9624C123.473 47.0503 123.201 47.3223 122.113 47.3223C121.025 47.3223 120.753 47.0503 120.753 45.9624C120.753 44.8746 120.481 44.6026 119.393 44.6026C118.305 44.6026 118.033 44.3306 118.033 43.2428C118.033 42.1549 118.305 41.8829 119.393 41.8829C120.481 41.8829 120.753 42.1549 120.753 43.2428ZM6.52716 48.6821C6.52716 52.6708 6.55762 52.7616 7.88699 52.7616C8.97486 52.7616 9.24683 52.4896 9.24683 51.4018C9.24683 50.3139 9.51879 50.0419 10.6067 50.0419C11.6945 50.0419 11.9665 49.77 11.9665 48.6821C11.9665 47.5942 11.6945 47.3223 10.6067 47.3223C9.51879 47.3223 9.24683 47.0503 9.24683 45.9624C9.24683 44.8746 8.97486 44.6026 7.88699 44.6026C6.55762 44.6026 6.52716 44.6934 6.52716 48.6821ZM69.0795 48.6821C69.0795 50.0115 69.1703 50.0419 73.159 50.0419C77.1476 50.0419 77.2385 50.0115 77.2385 48.6821C77.2385 47.3527 77.1476 47.3223 73.159 47.3223C69.1703 47.3223 69.0795 47.3527 69.0795 48.6821ZM96.2761 48.6821C96.2761 49.77 96.5481 50.0419 97.6359 50.0419C98.7238 50.0419 98.9958 49.77 98.9958 48.6821C98.9958 47.5942 98.7238 47.3223 97.6359 47.3223C96.5481 47.3223 96.2761 47.5942 96.2761 48.6821ZM107.155 50.0419C107.155 52.5805 107.064 52.7616 105.795 52.7616C104.707 52.7616 104.435 53.0336 104.435 54.1214C104.435 55.2093 104.707 55.4813 105.795 55.4813C106.883 55.4813 107.155 55.2093 107.155 54.1214C107.155 52.7921 107.246 52.7616 111.234 52.7616C115.223 52.7616 115.314 52.7311 115.314 51.4018C115.314 50.3139 115.042 50.0419 113.954 50.0419C112.866 50.0419 112.594 49.77 112.594 48.6821C112.594 47.4131 112.413 47.3223 109.874 47.3223H107.155V50.0419ZM44.6025 51.4018C44.6025 52.4896 44.8744 52.7616 45.9623 52.7616C47.0502 52.7616 47.3221 52.4896 47.3221 51.4018C47.3221 50.3139 47.0502 50.0419 45.9623 50.0419C44.8744 50.0419 44.6025 50.3139 44.6025 51.4018ZM63.6401 54.1214C63.6401 55.2093 63.9121 55.4813 65 55.4813C66.0878 55.4813 66.3598 55.2093 66.3598 54.1214C66.3598 53.0336 66.0878 52.7616 65 52.7616C63.9121 52.7616 63.6401 53.0336 63.6401 54.1214ZM69.0795 54.1214C69.0795 55.2093 69.3514 55.4813 70.4393 55.4813C71.5272 55.4813 71.7991 55.2093 71.7991 54.1214C71.7991 53.0336 71.5272 52.7616 70.4393 52.7616C69.3514 52.7616 69.0795 53.0336 69.0795 54.1214ZM77.2385 54.1214C77.2385 55.2093 77.5104 55.4813 78.5983 55.4813C79.6862 55.4813 79.9581 55.2093 79.9581 54.1214C79.9581 53.0336 79.6862 52.7616 78.5983 52.7616C77.5104 52.7616 77.2385 53.0336 77.2385 54.1214ZM3.8075 59.5608V63.6403H6.52716C9.0657 63.6403 9.24683 63.5494 9.24683 62.2804C9.24683 61.1926 8.97486 60.9206 7.88699 60.9206C6.618 60.9206 6.52716 60.7395 6.52716 58.2009C6.52716 55.6624 6.43632 55.4813 5.16733 55.4813C3.83796 55.4813 3.8075 55.5721 3.8075 59.5608ZM9.24683 56.8411C9.24683 57.929 9.51879 58.2009 10.6067 58.2009C11.6945 58.2009 11.9665 57.929 11.9665 56.8411C11.9665 55.7532 11.6945 55.4813 10.6067 55.4813C9.51879 55.4813 9.24683 55.7532 9.24683 56.8411ZM55.4811 56.8411C55.4811 57.929 55.2092 58.2009 54.1213 58.2009C53.0334 58.2009 52.7615 57.929 52.7615 56.8411C52.7615 55.7532 53.0334 55.4813 54.1213 55.4813C55.2092 55.4813 55.4811 55.7532 55.4811 56.8411ZM31.0041 59.5608C31.0041 60.6486 31.2761 60.9206 32.364 60.9206C33.4518 60.9206 33.7238 60.6486 33.7238 59.5608C33.7238 58.4729 33.4518 58.2009 32.364 58.2009C31.2761 58.2009 31.0041 58.4729 31.0041 59.5608ZM74.5188 59.5608C74.5188 60.8297 74.6999 60.9206 77.2385 60.9206C79.777 60.9206 79.9581 60.8297 79.9581 59.5608C79.9581 58.2918 79.777 58.2009 77.2385 58.2009C74.6999 58.2009 74.5188 58.2918 74.5188 59.5608ZM25.5648 65.0001V69.0796H21.4853H17.4058V65.0001V60.9206H21.4853H25.5648V65.0001ZM55.4811 62.2804C55.4811 63.3683 55.2092 63.6403 54.1213 63.6403C53.0334 63.6403 52.7615 63.3683 52.7615 62.2804C52.7615 61.1926 53.0334 60.9206 54.1213 60.9206C55.2092 60.9206 55.4811 61.1926 55.4811 62.2804ZM69.0795 65.0001V69.0796H65H60.9205V65.0001V60.9206H65H69.0795V65.0001ZM90.8368 62.2804C90.8368 63.3683 91.1087 63.6403 92.1966 63.6403C93.2845 63.6403 93.5564 63.3683 93.5564 62.2804C93.5564 61.1926 93.2845 60.9206 92.1966 60.9206C91.1087 60.9206 90.8368 61.1926 90.8368 62.2804ZM112.594 65.0001V69.0796H108.515H104.435V65.0001V60.9206H108.515H112.594V65.0001ZM20.1255 65.0001C20.1255 66.0879 20.3975 66.3599 21.4853 66.3599C22.5732 66.3599 22.8452 66.0879 22.8452 65.0001C22.8452 63.9122 22.5732 63.6403 21.4853 63.6403C20.3975 63.6403 20.1255 63.9122 20.1255 65.0001ZM63.6401 65.0001C63.6401 66.0879 63.9121 66.3599 65 66.3599C66.0878 66.3599 66.3598 66.0879 66.3598 65.0001C66.3598 63.9122 66.0878 63.6403 65 63.6403C63.9121 63.6403 63.6401 63.9122 63.6401 65.0001ZM107.155 65.0001C107.155 66.0879 107.427 66.3599 108.515 66.3599C109.602 66.3599 109.874 66.0879 109.874 65.0001C109.874 63.9122 109.602 63.6403 108.515 63.6403C107.427 63.6403 107.155 63.9122 107.155 65.0001ZM58.2008 67.7197C58.2008 68.8076 57.9288 69.0796 56.841 69.0796C55.7531 69.0796 55.4811 68.8076 55.4811 67.7197C55.4811 66.6319 55.7531 66.3599 56.841 66.3599C57.9288 66.3599 58.2008 66.6319 58.2008 67.7197ZM112.594 75.8787C112.594 77.1477 112.775 77.2386 115.314 77.2386C117.852 77.2386 118.033 77.1477 118.033 75.8787C118.033 74.6097 117.852 74.5189 115.314 74.5189C112.775 74.5189 112.594 74.6097 112.594 75.8787ZM36.4435 78.5984C36.4435 79.6863 36.1715 79.9582 35.0836 79.9582C33.9958 79.9582 33.7238 79.6863 33.7238 78.5984C33.7238 77.5105 33.9958 77.2386 35.0836 77.2386C36.1715 77.2386 36.4435 77.5105 36.4435 78.5984ZM17.4058 81.3181C17.4058 82.4059 17.1339 82.6779 16.046 82.6779C14.9581 82.6779 14.6862 82.4059 14.6862 81.3181C14.6862 80.2302 14.9581 79.9582 16.046 79.9582C17.1339 79.9582 17.4058 80.2302 17.4058 81.3181ZM93.5564 81.3181C93.5564 82.4059 93.2845 82.6779 92.1966 82.6779C91.1087 82.6779 90.8368 82.4059 90.8368 81.3181C90.8368 80.2302 91.1087 79.9582 92.1966 79.9582C93.2845 79.9582 93.5564 80.2302 93.5564 81.3181ZM123.473 81.3181C123.473 82.4059 123.745 82.6779 124.833 82.6779C125.92 82.6779 126.192 82.4059 126.192 81.3181C126.192 80.2302 125.92 79.9582 124.833 79.9582C123.745 79.9582 123.473 80.2302 123.473 81.3181ZM22.8452 84.0377C22.8452 85.1256 22.5732 85.3976 21.4853 85.3976C20.3975 85.3976 20.1255 85.1256 20.1255 84.0377C20.1255 82.9499 20.3975 82.6779 21.4853 82.6779C22.5732 82.6779 22.8452 82.9499 22.8452 84.0377ZM17.4058 86.7574C17.4058 87.8453 17.1339 88.1172 16.046 88.1172C14.9581 88.1172 14.6862 87.8453 14.6862 86.7574C14.6862 85.6695 14.9581 85.3976 16.046 85.3976C17.1339 85.3976 17.4058 85.6695 17.4058 86.7574ZM96.2761 86.7574C96.2761 87.8453 96.5481 88.1172 97.6359 88.1172C98.7238 88.1172 98.9958 88.3892 98.9958 89.4771C98.9958 90.5649 99.2677 90.8369 100.356 90.8369C101.443 90.8369 101.715 91.1089 101.715 92.1967C101.715 93.2846 101.443 93.5566 100.356 93.5566C99.2677 93.5566 98.9958 93.2846 98.9958 92.1967C98.9958 91.1089 98.7238 90.8369 97.6359 90.8369C96.5481 90.8369 96.2761 90.5649 96.2761 89.4771C96.2761 88.3892 96.0041 88.1172 94.9163 88.1172C93.8284 88.1172 93.5564 88.3892 93.5564 89.4771C93.5564 90.5649 93.2845 90.8369 92.1966 90.8369C91.1087 90.8369 90.8368 90.5649 90.8368 89.4771C90.8368 88.3892 90.5648 88.1172 89.4769 88.1172C88.3891 88.1172 88.1171 87.8453 88.1171 86.7574C88.1171 85.428 88.208 85.3976 92.1966 85.3976C96.1853 85.3976 96.2761 85.428 96.2761 86.7574ZM3.8075 92.1967C3.8075 96.1854 3.83796 96.2762 5.16733 96.2762C6.25519 96.2762 6.52716 96.0043 6.52716 94.9164C6.52716 93.8285 6.79913 93.5566 7.88699 93.5566C8.97486 93.5566 9.24683 93.8285 9.24683 94.9164C9.24683 96.1854 9.42796 96.2762 11.9665 96.2762C14.505 96.2762 14.6862 96.3671 14.6862 97.6361C14.6862 98.9654 14.5953 98.9959 10.6067 98.9959C6.618 98.9959 6.52716 99.0264 6.52716 100.356C6.52716 101.444 6.25519 101.716 5.16733 101.716C4.07946 101.716 3.8075 101.988 3.8075 103.075C3.8075 104.163 4.07946 104.435 5.16733 104.435C6.25519 104.435 6.52716 104.163 6.52716 103.075C6.52716 101.806 6.70829 101.716 9.24683 101.716C11.7854 101.716 11.9665 101.806 11.9665 103.075C11.9665 104.344 12.1476 104.435 14.6862 104.435H17.4058V100.356C17.4058 96.3671 17.4363 96.2762 18.7657 96.2762C19.8535 96.2762 20.1255 96.5482 20.1255 97.6361C20.1255 98.9051 20.3066 98.9959 22.8452 98.9959C25.3837 98.9959 25.5648 98.9051 25.5648 97.6361C25.5648 96.3671 25.3837 96.2762 22.8452 96.2762C20.3066 96.2762 20.1255 96.1854 20.1255 94.9164C20.1255 93.8285 20.3975 93.5566 21.4853 93.5566C22.5732 93.5566 22.8452 93.2846 22.8452 92.1967C22.8452 91.1089 22.5732 90.8369 21.4853 90.8369C20.3975 90.8369 20.1255 91.1089 20.1255 92.1967C20.1255 93.2846 19.8535 93.5566 18.7657 93.5566C17.6778 93.5566 17.4058 93.8285 17.4058 94.9164C17.4058 96.0043 17.1339 96.2762 16.046 96.2762C14.9581 96.2762 14.6862 96.0043 14.6862 94.9164C14.6862 93.8285 14.4142 93.5566 13.3263 93.5566C12.2385 93.5566 11.9665 93.2846 11.9665 92.1967C11.9665 90.9277 11.7854 90.8369 9.24683 90.8369C6.70829 90.8369 6.52716 90.7461 6.52716 89.4771C6.52716 88.3892 6.25519 88.1172 5.16733 88.1172C3.83796 88.1172 3.8075 88.2081 3.8075 92.1967ZM25.5648 92.1967C25.5648 93.2846 25.8368 93.5566 26.9246 93.5566C28.0125 93.5566 28.2845 93.2846 28.2845 92.1967C28.2845 91.1089 28.0125 90.8369 26.9246 90.8369C25.8368 90.8369 25.5648 91.1089 25.5648 92.1967ZM71.7991 92.1967C71.7991 93.2846 71.5272 93.5566 70.4393 93.5566C69.1703 93.5566 69.0795 93.7377 69.0795 96.2762V98.9959H71.7991C74.3377 98.9959 74.5188 98.9051 74.5188 97.6361C74.5188 96.3067 74.6096 96.2762 78.5983 96.2762C82.5869 96.2762 82.6778 96.2458 82.6778 94.9164C82.6778 93.6474 82.4967 93.5566 79.9581 93.5566C77.4196 93.5566 77.2385 93.4657 77.2385 92.1967C77.2385 90.9277 77.0573 90.8369 74.5188 90.8369C71.9803 90.8369 71.7991 90.9277 71.7991 92.1967ZM74.5188 94.9164C74.5188 96.0043 74.2468 96.2762 73.159 96.2762C72.0711 96.2762 71.7991 96.0043 71.7991 94.9164C71.7991 93.8285 72.0711 93.5566 73.159 93.5566C74.2468 93.5566 74.5188 93.8285 74.5188 94.9164ZM96.2761 94.9164C96.2761 96.0043 96.0041 96.2762 94.9163 96.2762C93.8284 96.2762 93.5564 96.0043 93.5564 94.9164C93.5564 93.8285 93.8284 93.5566 94.9163 93.5566C96.0041 93.5566 96.2761 93.8285 96.2761 94.9164ZM20.1255 103.075C20.1255 104.163 20.3975 104.435 21.4853 104.435C22.5732 104.435 22.8452 104.163 22.8452 103.075C22.8452 101.988 22.5732 101.716 21.4853 101.716C20.3975 101.716 20.1255 101.988 20.1255 103.075ZM58.2008 103.075C58.2008 104.163 57.9288 104.435 56.841 104.435C55.7531 104.435 55.4811 104.163 55.4811 103.075C55.4811 101.988 55.7531 101.716 56.841 101.716C57.9288 101.716 58.2008 101.988 58.2008 103.075ZM69.0795 108.515V112.594H65H60.9205V108.515V104.435H65H69.0795V108.515ZM79.9581 105.795C79.9581 106.883 80.2301 107.155 81.318 107.155C82.4058 107.155 82.6778 106.883 82.6778 105.795C82.6778 104.707 82.4058 104.435 81.318 104.435C80.2301 104.435 79.9581 104.707 79.9581 105.795ZM85.3975 105.795C85.3975 106.883 85.6694 107.155 86.7573 107.155C87.8451 107.155 88.1171 106.883 88.1171 105.795C88.1171 104.707 87.8451 104.435 86.7573 104.435C85.6694 104.435 85.3975 104.707 85.3975 105.795ZM93.5564 105.795C93.5564 106.883 93.8284 107.155 94.9163 107.155C96.0041 107.155 96.2761 106.883 96.2761 105.795C96.2761 104.707 96.0041 104.435 94.9163 104.435C93.8284 104.435 93.5564 104.707 93.5564 105.795ZM112.594 108.515V112.594H108.515H104.435V108.515V104.435H108.515H112.594V108.515ZM118.033 105.795C118.033 106.883 117.761 107.155 116.674 107.155C115.586 107.155 115.314 106.883 115.314 105.795C115.314 104.707 115.586 104.435 116.674 104.435C117.761 104.435 118.033 104.707 118.033 105.795ZM3.8075 116.674V126.193H13.3263H22.8452V116.674V107.155H13.3263H3.8075V116.674ZM63.6401 108.515C63.6401 109.603 63.9121 109.875 65 109.875C66.0878 109.875 66.3598 109.603 66.3598 108.515C66.3598 107.427 66.0878 107.155 65 107.155C63.9121 107.155 63.6401 107.427 63.6401 108.515ZM107.155 108.515C107.155 109.603 107.427 109.875 108.515 109.875C109.602 109.875 109.874 109.603 109.874 108.515C109.874 107.427 109.602 107.155 108.515 107.155C107.427 107.155 107.155 107.427 107.155 108.515ZM20.1255 116.674V123.473H13.3263H6.52716V116.674V109.875H13.3263H20.1255V116.674ZM58.2008 111.234C58.2008 112.564 58.11 112.594 54.1213 112.594H50.0418V115.314C50.0418 117.852 50.1326 118.034 51.4016 118.034C52.4895 118.034 52.7615 117.762 52.7615 116.674C52.7615 115.405 52.9426 115.314 55.4811 115.314C58.0197 115.314 58.2008 115.405 58.2008 116.674C58.2008 117.943 58.0197 118.034 55.4811 118.034C52.9426 118.034 52.7615 118.124 52.7615 119.393C52.7615 120.481 52.4895 120.753 51.4016 120.753C50.3138 120.753 50.0418 120.481 50.0418 119.393C50.0418 118.306 49.7698 118.034 48.682 118.034C47.5941 118.034 47.3221 117.762 47.3221 116.674C47.3221 115.586 47.0502 115.314 45.9623 115.314C44.6933 115.314 44.6025 115.495 44.6025 118.034C44.6025 120.572 44.5116 120.753 43.2426 120.753C42.1548 120.753 41.8828 120.481 41.8828 119.393C41.8828 118.306 41.6108 118.034 40.523 118.034C39.4351 118.034 39.1631 117.762 39.1631 116.674C39.1631 115.405 39.3443 115.314 41.8828 115.314C44.4213 115.314 44.6025 115.223 44.6025 113.954C44.6025 112.866 44.8744 112.594 45.9623 112.594C47.0502 112.594 47.3221 112.322 47.3221 111.234V109.875H52.7615H58.2008V111.234ZM120.753 111.234C120.753 112.503 120.934 112.594 123.473 112.594C126.011 112.594 126.192 112.503 126.192 111.234C126.192 109.965 126.011 109.875 123.473 109.875C120.934 109.875 120.753 109.965 120.753 111.234ZM9.24683 116.674V120.753H13.3263H17.4058V116.674V112.594H13.3263H9.24683V116.674ZM88.1171 113.954C88.1171 115.042 88.3891 115.314 89.4769 115.314C90.5648 115.314 90.8368 115.586 90.8368 116.674C90.8368 117.762 90.5648 118.034 89.4769 118.034C88.3891 118.034 88.1171 118.306 88.1171 119.393C88.1171 120.481 87.8451 120.753 86.7573 120.753C85.4883 120.753 85.3975 120.572 85.3975 118.034C85.3975 115.495 85.3066 115.314 84.0376 115.314C82.9498 115.314 82.6778 115.042 82.6778 113.954C82.6778 112.685 82.8589 112.594 85.3975 112.594C87.936 112.594 88.1171 112.685 88.1171 113.954ZM36.4435 116.674C36.4435 117.762 36.1715 118.034 35.0836 118.034C33.9958 118.034 33.7238 117.762 33.7238 116.674C33.7238 115.586 33.9958 115.314 35.0836 115.314C36.1715 115.314 36.4435 115.586 36.4435 116.674ZM66.3598 116.674C66.3598 117.762 66.6318 118.034 67.7196 118.034C68.8075 118.034 69.0795 118.306 69.0795 119.393C69.0795 120.481 68.8075 120.753 67.7196 120.753C66.6318 120.753 66.3598 120.481 66.3598 119.393C66.3598 118.306 66.0878 118.034 65 118.034C63.9121 118.034 63.6401 117.762 63.6401 116.674C63.6401 115.586 63.9121 115.314 65 115.314C66.0878 115.314 66.3598 115.586 66.3598 116.674ZM112.594 118.034C112.594 120.572 112.503 120.753 111.234 120.753C110.146 120.753 109.874 121.025 109.874 122.113C109.874 123.201 109.602 123.473 108.515 123.473C107.427 123.473 107.155 123.201 107.155 122.113C107.155 121.025 107.427 120.753 108.515 120.753C109.602 120.753 109.874 120.481 109.874 119.393C109.874 118.306 109.602 118.034 108.515 118.034C107.427 118.034 107.155 117.762 107.155 116.674C107.155 115.405 107.336 115.314 109.874 115.314H112.594V118.034ZM36.4435 122.113C36.4435 123.201 36.1715 123.473 35.0836 123.473C33.9958 123.473 33.7238 123.201 33.7238 122.113C33.7238 121.025 33.9958 120.753 35.0836 120.753C36.1715 120.753 36.4435 121.025 36.4435 122.113ZM58.2008 124.833C58.2008 125.921 58.4728 126.193 59.5606 126.193C60.6485 126.193 60.9205 125.921 60.9205 124.833C60.9205 123.745 60.6485 123.473 59.5606 123.473C58.4728 123.473 58.2008 123.745 58.2008 124.833Z" fill="black"/>
</svg>
